<svg xmlns="http://www.w3.org/2000/svg" viewBox="0 0 49.82 52.91"><defs><style>.cls-1{fill:#528616;}.cls-2{fill:#adc263;}.cls-3{fill:#679c24;}.cls-4{fill:#56821e;}.cls-5{fill:#88c240;}</style></defs><title>broccoli</title><g id="Layer_2" data-name="Layer 2"><g id="Layer_1-2" data-name="Layer 1"><circle class="cls-1" cx="11.9" cy="18.17" r="11.9"/><circle class="cls-1" cx="9.09" cy="26.98" r="7.93" transform="translate(-19.25 29.65) rotate(-76.76)"/><circle class="cls-1" cx="29.22" cy="9.14" r="7.93" transform="translate(13.39 35.34) rotate(-76.23)"/><circle class="cls-1" cx="38.66" cy="20.9" r="11.16" transform="translate(-3.94 31.72) rotate(-42.65)"/><path class="cls-1" d="M36.12,27a5.8,5.8,0,1,1-5.79-5.8A5.79,5.79,0,0,1,36.12,27Z"/><path class="cls-2" d="M22.37,52.91h0a2.43,2.43,0,0,1-2.44-2.43V27.41A2.43,2.43,0,0,1,22.37,25h0a2.43,2.43,0,0,1,2.43,2.43V50.48A2.43,2.43,0,0,1,22.37,52.91Z"/><path class="cls-2" d="M23.6,50.85l-2.26.2A1.21,1.21,0,0,1,20.05,50a52.51,52.51,0,0,0-8-22.72,1.2,1.2,0,0,1,.34-1.65l1.89-1.26a1.23,1.23,0,0,1,1.7.43,56.8,56.8,0,0,1,8.64,24.68A1.22,1.22,0,0,1,23.6,50.85Z"/><path class="cls-2" d="M21.2,48.82l2.26.2a1.2,1.2,0,0,0,1.29-1.08,52.42,52.42,0,0,1,8-22.71,1.22,1.22,0,0,0-.34-1.66l-1.89-1.25a1.22,1.22,0,0,0-1.7.43,56.9,56.9,0,0,0-8.65,24.68A1.23,1.23,0,0,0,21.2,48.82Z"/><path class="cls-3" d="M15.73,27.46a5.81,5.81,0,1,1-5.81-5.81A5.81,5.81,0,0,1,15.73,27.46Z"/><circle class="cls-3" cx="12.92" cy="18.17" r="8.81"/><circle class="cls-3" cx="23.8" cy="11.9" r="11.9"/><circle class="cls-3" cx="22.37" cy="20.07" r="7.4"/><circle class="cls-3" cx="37.56" cy="20.9" r="10.07" transform="translate(-4.95 27.28) rotate(-37.63)"/><path class="cls-4" d="M30.19,14.09a5.57,5.57,0,0,1,.21,1.48,5.27,5.27,0,0,1-9.68,2.88,5.27,5.27,0,1,0,9.47-4.36Z"/><path class="cls-4" d="M20.76,16.58a5.28,5.28,0,0,1-6.3,5.6A5.24,5.24,0,0,1,10.61,19a5.27,5.27,0,1,0,10.15-2.39Z"/><path class="cls-4" d="M37.17,20.59a3.65,3.65,0,0,1-.74.67,3.56,3.56,0,0,1-5.28-4.33,3.56,3.56,0,0,0,4.73,5.23A3.5,3.5,0,0,0,37.17,20.59Z"/><path class="cls-5" d="M22.21,7.67A3.17,3.17,0,1,1,19,4.5,3.17,3.17,0,0,1,22.21,7.67Z"/><path class="cls-5" d="M40,15.07a2.4,2.4,0,1,1-2.4-2.4A2.41,2.41,0,0,1,40,15.07Z"/><path class="cls-5" d="M24.73,5.46a2.4,2.4,0,1,1-2.4-2.4A2.39,2.39,0,0,1,24.73,5.46Z"/></g></g></svg>