<svg id="Layer_1" data-name="Layer 1" xmlns="http://www.w3.org/2000/svg" viewBox="0 0 56.33 61.96"><defs><style>.cls-1{fill:#528616;}.cls-2{fill:#adc263;}.cls-3{fill:#679c24;}.cls-4{fill:#56821e;}.cls-5{fill:#88c240;}</style></defs><title>vector</title><circle class="cls-1" cx="15.15" cy="23.19" r="11.9"/><circle class="cls-1" cx="12.34" cy="31.99" r="7.93" transform="translate(-21.63 36.68) rotate(-76.76)"/><circle class="cls-1" cx="32.48" cy="14.15" r="7.93" transform="translate(11 42.33) rotate(-76.23)"/><circle class="cls-1" cx="41.91" cy="25.92" r="11.16" transform="translate(-6.47 35.25) rotate(-42.65)"/><path class="cls-1" d="M39.38,32a5.8,5.8,0,1,1-5.8-5.79A5.8,5.8,0,0,1,39.38,32Z"/><path class="cls-2" d="M25.62,57.93h0a2.43,2.43,0,0,1-2.43-2.43V32.42A2.43,2.43,0,0,1,25.62,30h0a2.43,2.43,0,0,1,2.43,2.43V55.5A2.43,2.43,0,0,1,25.62,57.93Z"/><path class="cls-2" d="M26.86,55.86l-2.26.2A1.2,1.2,0,0,1,23.3,55a52.37,52.37,0,0,0-8-22.72,1.2,1.2,0,0,1,.33-1.65l1.9-1.25a1.23,1.23,0,0,1,1.7.42,57.1,57.1,0,0,1,8.64,24.69A1.22,1.22,0,0,1,26.86,55.86Z"/><path class="cls-2" d="M24.45,53.84l2.26.2A1.21,1.21,0,0,0,28,53a52.33,52.33,0,0,1,8-22.71,1.21,1.21,0,0,0-.34-1.66l-1.89-1.25a1.23,1.23,0,0,0-1.7.43,56.93,56.93,0,0,0-8.64,24.68A1.23,1.23,0,0,0,24.45,53.84Z"/><path class="cls-3" d="M19,32.48a5.81,5.81,0,1,1-5.81-5.81A5.81,5.81,0,0,1,19,32.48Z"/><circle class="cls-3" cx="16.17" cy="23.19" r="8.81"/><circle class="cls-3" cx="27.05" cy="16.91" r="11.9"/><circle class="cls-3" cx="25.62" cy="25.08" r="7.4"/><circle class="cls-3" cx="40.81" cy="25.92" r="10.07" transform="translate(-7.33 30.31) rotate(-37.63)"/><path class="cls-4" d="M33.44,19.11a5.07,5.07,0,0,1,.21,1.47A5.27,5.27,0,0,1,24,23.47a5.27,5.27,0,1,0,9.47-4.36Z"/><path class="cls-4" d="M24,21.59a5.37,5.37,0,0,1-.08,1.49A5.27,5.27,0,0,1,13.87,24,5.27,5.27,0,1,0,24,21.59Z"/><path class="cls-4" d="M40.43,25.6a3.25,3.25,0,0,1-.75.68A3.56,3.56,0,0,1,34.41,22a3.56,3.56,0,0,0,4.73,5.23A3.64,3.64,0,0,0,40.43,25.6Z"/><path class="cls-5" d="M25.46,12.68A3.17,3.17,0,1,1,22.3,9.52,3.16,3.16,0,0,1,25.46,12.68Z"/><path class="cls-5" d="M43.21,20.08a2.4,2.4,0,1,1-2.4-2.4A2.39,2.39,0,0,1,43.21,20.08Z"/><path class="cls-5" d="M28,10.48a2.4,2.4,0,1,1-2.4-2.4A2.4,2.4,0,0,1,28,10.48Z"/></svg>