<svg xmlns="http://www.w3.org/2000/svg" viewBox="0 0 45.09 50.54"><defs><style>.cls-1{fill:#689e28;}.cls-2{fill:#fe8b2f;}.cls-3{fill:#d97628;}.cls-4{fill:#feb072;}</style></defs><title>carrot</title><g id="Layer_2" data-name="Layer 2"><g id="Layer_1-2" data-name="Layer 1"><rect class="cls-1" x="35.36" y="-0.38" width="2.09" height="14.04" transform="translate(7.8 -16.83) rotate(29.03)"/><rect class="cls-1" x="37.78" y="1.74" width="2.09" height="14.04" transform="translate(54.83 45.2) rotate(-126.44)"/><rect class="cls-1" x="36.9" y="0.48" width="2.09" height="14.04" transform="translate(61.51 38.18) rotate(-138.7)"/><path class="cls-1" d="M37.75,12.94c-.89,1-2-.1-3.39-1.35S31.68,9.41,32.57,8.4s2.77-.82,4.2.44S38.64,11.93,37.75,12.94Z"/><path class="cls-2" d="M30,26.18C20.26,37.27,3,52.62.35,50.31s10.36-21.43,20.1-32.52S33,7.83,35.62,10.15,39.74,15.09,30,26.18Z"/><path class="cls-3" d="M36.26,10.75C37,13,35.68,16.63,28.85,24.4,19.85,34.65,4.42,48.54.05,48.76a1.7,1.7,0,0,0,.3,1.55C3,52.62,20.26,37.27,30,26.18,38.91,16,38.43,13,36.26,10.75Z"/><path class="cls-4" d="M25.17,20.17c-4,4.53-7.77,7.69-8.48,7.06s1.93-4.8,5.9-9.32,7.77-7.69,8.48-7.06S29.14,15.65,25.17,20.17Z"/><path class="cls-3" d="M31.34,14.2l-1.77-1.56a.72.72,0,0,1-.07-1h0a.74.74,0,0,1,1-.07L32.3,13.1a.72.72,0,0,1,.07,1h0A.74.74,0,0,1,31.34,14.2Z"/><path class="cls-3" d="M31.15,19.29l-1.78-1.56a.73.73,0,0,1-.06-1h0a.74.74,0,0,1,1-.07l1.77,1.56a.74.74,0,0,1,.07,1h0A.74.74,0,0,1,31.15,19.29Z"/><path class="cls-3" d="M22.24,30.94l-1.77-1.56a.72.72,0,0,1-.07-1h0a.74.74,0,0,1,1-.07l1.77,1.56a.72.72,0,0,1,.07,1h0A.74.74,0,0,1,22.24,30.94Z"/><path class="cls-3" d="M16.47,31.13,14.7,29.57a.72.72,0,0,1-.07-1h0a.74.74,0,0,1,1-.07L17.43,30a.72.72,0,0,1,.07,1h0A.74.74,0,0,1,16.47,31.13Z"/><path class="cls-3" d="M14.24,37.86,12.47,36.3a.72.72,0,0,1-.07-1h0a.74.74,0,0,1,1-.07l1.77,1.56a.72.72,0,0,1,.07,1h0A.74.74,0,0,1,14.24,37.86Z"/><path class="cls-3" d="M7.64,41.91,5.86,40.35a.74.74,0,0,1-.07-1h0a.74.74,0,0,1,1-.07L8.6,40.81a.74.74,0,0,1,.07,1h0A.74.74,0,0,1,7.64,41.91Z"/><path class="cls-3" d="M29.16,26,27.38,24.4a.73.73,0,0,1-.06-1h0a.74.74,0,0,1,1-.07l1.77,1.56a.74.74,0,0,1,.07,1h0A.74.74,0,0,1,29.16,26Z"/><path class="cls-3" d="M24,23.55,22.26,22a.73.73,0,0,1-.07-1h0a.73.73,0,0,1,1-.06L25,22.46a.73.73,0,0,1,.07,1h0A.73.73,0,0,1,24,23.55Z"/></g></g></svg>