<svg id="Layer_1" data-name="Layer 1" xmlns="http://www.w3.org/2000/svg" viewBox="0 0 49.03 53"><defs><style>.cls-1{fill:#689e28;}.cls-2{fill:#fe8b2f;}.cls-3{fill:#d97628;}.cls-4{fill:#feb072;}</style></defs><title>vector</title><rect class="cls-1" x="36.53" y="0.13" width="2.09" height="14.04" transform="translate(8.19 -17.34) rotate(29.03)"/><rect class="cls-1" x="38.95" y="2.25" width="2.09" height="14.04" transform="translate(56.29 46.94) rotate(-126.44)"/><rect class="cls-1" x="38.08" y="0.98" width="2.09" height="14.04" transform="translate(63.23 39.83) rotate(-138.7)"/><path class="cls-1" d="M38.92,13.45c-.89,1-2-.1-3.39-1.36S32.86,9.91,33.74,8.9s2.77-.82,4.2.44S39.81,12.43,38.92,13.45Z"/><path class="cls-2" d="M31.17,26.68c-9.74,11.09-27,26.45-29.65,24.13s10.36-21.43,20.1-32.52,12.53-10,15.17-7.64S40.91,15.59,31.17,26.68Z"/><path class="cls-3" d="M37.43,11.26c.73,2.26-.58,5.87-7.4,13.64C21,35.15,5.59,49,1.22,49.26a1.69,1.69,0,0,0,.3,1.55c2.63,2.32,19.91-13,29.65-24.13C40.08,16.54,39.6,13.48,37.43,11.26Z"/><path class="cls-4" d="M26.34,20.68c-4,4.52-7.77,7.68-8.48,7.05s1.93-4.8,5.9-9.32,7.77-7.68,8.48-7.06S30.31,16.15,26.34,20.68Z"/><path class="cls-3" d="M32.51,14.7l-1.77-1.56a.74.74,0,0,1-.07-1h0a.73.73,0,0,1,1-.06l1.78,1.56a.73.73,0,0,1,.06,1h0A.73.73,0,0,1,32.51,14.7Z"/><path class="cls-3" d="M32.32,19.79l-1.78-1.56a.73.73,0,0,1-.06-1h0a.74.74,0,0,1,1-.07l1.77,1.56a.74.74,0,0,1,.07,1h0A.72.72,0,0,1,32.32,19.79Z"/><path class="cls-3" d="M23.41,31.44l-1.77-1.56a.72.72,0,0,1-.07-1h0a.74.74,0,0,1,1-.07l1.77,1.56a.72.72,0,0,1,.07,1h0A.72.72,0,0,1,23.41,31.44Z"/><path class="cls-3" d="M17.64,31.63l-1.77-1.56a.72.72,0,0,1-.07-1h0a.74.74,0,0,1,1-.07l1.77,1.56a.72.72,0,0,1,.07,1h0A.72.72,0,0,1,17.64,31.63Z"/><path class="cls-3" d="M15.41,38.36,13.64,36.8a.72.72,0,0,1-.07-1h0a.74.74,0,0,1,1-.07l1.77,1.56a.72.72,0,0,1,.07,1h0A.72.72,0,0,1,15.41,38.36Z"/><path class="cls-3" d="M8.81,42.41,7,40.85a.74.74,0,0,1-.07-1H7a.75.75,0,0,1,1-.07l1.77,1.56a.74.74,0,0,1,.07,1h0A.74.74,0,0,1,8.81,42.41Z"/><path class="cls-3" d="M30.33,26.46,28.55,24.9a.73.73,0,0,1-.06-1h0a.74.74,0,0,1,1-.07l1.77,1.56a.74.74,0,0,1,.07,1h0A.72.72,0,0,1,30.33,26.46Z"/><path class="cls-3" d="M25.2,24.06,23.43,22.5a.72.72,0,0,1-.07-1h0a.74.74,0,0,1,1-.07L26.16,23a.72.72,0,0,1,.07,1h0A.74.74,0,0,1,25.2,24.06Z"/></svg>