<svg xmlns="http://www.w3.org/2000/svg" viewBox="0 0 53.17 42.74"><defs><style>.cls-1{fill:#528916;}.cls-2{fill:#86b60e;}.cls-3{fill:#79a019;}.cls-4{fill:#a4c94b;}</style></defs><title>chili_green</title><g id="Layer_2" data-name="Layer 2"><g id="Layer_1-2" data-name="Layer 1"><path class="cls-1" d="M50.47,11.8a6,6,0,0,0,.72-1.51,7.75,7.75,0,0,0,.33-1.66,6.41,6.41,0,0,0-.1-1.69A12.64,12.64,0,0,0,51,5.31a8.64,8.64,0,0,0-.72-1.54,7.77,7.77,0,0,0-1-1.34A6,6,0,0,0,46.38.81l0,.11a6.19,6.19,0,0,1,1.37.79,5.92,5.92,0,0,1,1.08,1.1,6.59,6.59,0,0,1,.79,1.32,8.18,8.18,0,0,1,.5,1.44,7.13,7.13,0,0,1,.21,1.51c0,.51.05,1,.07,1.52s0,1,0,1.55,0,1.06,0,1.62Z"/><path class="cls-2" d="M21,42.69c-.09.2,5.74-.11,12.16-3.53,6.45-3.19,13.47-9.49,16.6-15.78s3.56-9.78,3.34-11.5S52,10.18,51,10a2.23,2.23,0,0,0-2.66,1.16c-.9,1.38-1.7,4.31-4.15,9.71A42.55,42.55,0,0,1,31.62,36.68C26.46,40.81,20.85,42.43,21,42.69Z"/><path class="cls-3" d="M22.77,41.84a32.68,32.68,0,0,0,9.32-3.29c6.45-3.19,13.47-9.49,16.61-15.78S52.25,13,52,11.27a2.81,2.81,0,0,0-.41-1.15c.7.12,1.26.38,1.5,1.76.22,1.72-.09,5.28-3.34,11.5S39.63,36,33.18,39.16C26.76,42.58,20.93,42.89,21,42.69S21.64,42.33,22.77,41.84Z"/><path class="cls-1" d="M48.6,9.78c-.05.82.93,1,2.13,1s2.19.06,2.24-.76-.89-1.54-2.1-1.61S48.65,9,48.6,9.78Z"/><path class="cls-4" d="M45.23,22.25c.38.19,1.48-1.27,2.47-3.27s1.48-3.76,1.1-3.94-1.48,1.27-2.47,3.27S44.85,22.07,45.23,22.25Z"/><path class="cls-1" d="M42.54,10.93a5.82,5.82,0,0,0,1.54-.66,7.31,7.31,0,0,0,1.35-1,6.16,6.16,0,0,0,1-1.33,11.28,11.28,0,0,0,.75-1.52,9.43,9.43,0,0,0,.49-1.62,7.32,7.32,0,0,0,.12-1.68A5.85,5.85,0,0,0,46.79,0l-.1.06a5.81,5.81,0,0,1,.5,1.49,5.78,5.78,0,0,1,.07,1.55A6.5,6.5,0,0,1,47,4.61,7.21,7.21,0,0,1,46.39,6a7.61,7.61,0,0,1-.85,1.27l-.95,1.18q-.5.58-1,1.17c-.35.39-.72.77-1.09,1.19Z"/><path class="cls-2" d="M0,14.41c-.21.08,4.35,3.73,11.42,5.44,6.94,1.91,16.37,1.88,22.9-.73s9.15-4.94,10.13-6.37.28-2-.35-2.79a2.23,2.23,0,0,0-2.76-.91c-1.59.43-4.13,2.1-9.56,4.49A42.31,42.31,0,0,1,11.92,17C5.32,16.62.05,14.1,0,14.41Z"/><path class="cls-3" d="M1.88,14.93A32.72,32.72,0,0,0,11,18.68c6.94,1.91,16.37,1.88,22.9-.74S43.08,13,44.05,11.57a2.86,2.86,0,0,0,.47-1.13c.44.55.68,1.12-.06,2.31-1,1.43-3.58,3.88-10.13,6.37s-16,2.64-22.9.73C4.36,18.14-.2,14.49,0,14.41,0,14.3.71,14.55,1.88,14.93Z"/><path class="cls-1" d="M42.49,8.18c-.58.58.06,1.32.91,2.18s1.6,1.5,2.18.92.35-1.74-.5-2.6S43.07,7.6,42.49,8.18Z"/><path class="cls-4" d="M31.67,15.25c.16.39,2,0,4-.8s3.61-1.83,3.45-2.22-2,0-4,.8S31.52,14.86,31.67,15.25Z"/></g></g></svg>