<svg xmlns="http://www.w3.org/2000/svg" viewBox="0 0 50.69 51.81"><defs><style>.cls-1{fill:#528916;}.cls-2{fill:#ed2128;}.cls-3{fill:#c71c21;}.cls-4{fill:#ed767a;}</style></defs><title>chili_red</title><g id="Layer_2" data-name="Layer 2"><g id="Layer_1-2" data-name="Layer 1"><path class="cls-1" d="M3.83,15.87A8,8,0,0,1,2.52,14a10.58,10.58,0,0,1-.81-2.18,8.72,8.72,0,0,1-.25-2.33,16.46,16.46,0,0,1,.27-2.33,11.48,11.48,0,0,1,.64-2.24,10.09,10.09,0,0,1,1.1-2A8.06,8.06,0,0,1,7,0l.07.14A8,8,0,0,0,5.39,1.51,7.56,7.56,0,0,0,4.15,3.25a8.79,8.79,0,0,0-.78,2A10.47,10.47,0,0,0,3,7.29,10.64,10.64,0,0,0,3,9.4c.07.69.15,1.39.23,2.08s.19,1.41.31,2.12S3.85,15,4,15.8Z"/><path class="cls-2" d="M50.69,51.52c.17.25-7.85,1.1-17.33-2.16-9.49-2.93-20.43-10-26.07-17.88-5.78-7.75-7-12.54-7-14.93s1.18-2.57,2.48-3,2.45-.74,3.88,1,3.24,5.51,7.77,12.33A58.47,58.47,0,0,0,34.94,45.64C42.87,50.14,50.86,51.12,50.69,51.52Z"/><path class="cls-3" d="M48.12,50.74A45.27,45.27,0,0,1,34.71,48.3c-9.49-2.94-20.43-10-26.07-17.88s-7-12.54-7.06-14.94a3.91,3.91,0,0,1,.31-1.66c-.93.32-1.63.8-1.65,2.73.07,2.39,1.27,7.18,7.05,14.93s16.58,15,26.07,17.88c9.48,3.26,17.5,2.41,17.33,2.16C50.75,51.38,49.77,51.16,48.12,50.74Z"/><path class="cls-1" d="M5.93,12.71c.24,1.1-1.06,1.49-2.68,1.85S.28,15.12,0,14s.88-2.29,2.51-2.65S5.68,11.6,5.93,12.71Z"/><path class="cls-4" d="M13.24,29C12.77,29.3,11,27.54,9.17,25s-2.84-4.8-2.36-5.14,2.3,1.42,4.07,3.92S13.72,28.62,13.24,29Z"/></g></g></svg>