<svg id="Layer_1" data-name="Layer 1" xmlns="http://www.w3.org/2000/svg" viewBox="0 0 68 57.99"><defs><style>.cls-1{fill:#8fb042;}.cls-2{fill:#a4c94b;}.cls-3{fill:#c4e673;}</style></defs><title>vector</title><path class="cls-1" d="M6.64,10.52,5.38,9a1.14,1.14,0,0,1,.13-1.61C6.43,6.65,7.73,4.84,9,4.64s1.79,1,2.46,1.81a1.14,1.14,0,0,1-.13,1.61C10.42,8.81,7.9,12,6.64,10.52Z"/><path class="cls-2" d="M61.27,50.51C57.82,54.86,46.7,53.94,27,38.32,7.39,22.82,4.72,12.78,8.17,8.43s16,3.2,32.33,12.82C65.8,36.11,64.71,46.16,61.27,50.51Z"/><path class="cls-1" d="M63.06,44.64a8.31,8.31,0,0,1-1,1.61c-3.44,4.35-14.56,3.44-34.29-12.18-14.18-11.23-19.49-19.59-20-25C5,13.72,8.3,23.54,27,38.32,46.7,53.94,57.82,54.86,61.27,50.51A8.47,8.47,0,0,0,63.06,44.64Z"/><path class="cls-3" d="M41.28,27.53c-.65.95-3.88.3-10.7-4.33s-8.63-7.39-8-8.34,5.1,1.61,10.5,4.62C41.45,24.13,41.92,26.58,41.28,27.53Z"/></svg>