<svg xmlns="http://www.w3.org/2000/svg" viewBox="0 0 57.97 48.14"><defs><style>.cls-1{fill:#8fb042;}.cls-2{fill:#a4c94b;}.cls-3{fill:#c4e673;}</style></defs><title>cucumber</title><g id="Layer_2" data-name="Layer 2"><g id="Layer_1-2" data-name="Layer 1"><path class="cls-1" d="M1.53,5.91.27,4.43A1.15,1.15,0,0,1,.4,2.81C1.32,2,2.62.23,3.87,0S5.66,1,6.34,1.83A1.15,1.15,0,0,1,6.2,3.45C5.32,4.2,2.79,7.4,1.53,5.91Z"/><path class="cls-2" d="M56.16,45.89c-3.45,4.35-14.57,3.44-34.29-12.18S-.38,8.17,3.06,3.82,19,7,35.39,16.63C60.69,31.49,59.6,41.54,56.16,45.89Z"/><path class="cls-1" d="M58,40a8.36,8.36,0,0,1-1,1.62C53.5,46,42.38,45.07,22.66,29.45,8.48,18.23,3.17,9.87,2.62,4.46-.1,9.11,3.19,18.92,21.87,33.71,41.59,49.33,52.71,50.24,56.16,45.89A8.41,8.41,0,0,0,58,40Z"/><path class="cls-3" d="M36.17,22.92c-.64.94-3.88.29-10.7-4.33s-8.62-7.39-8-8.34,5.1,1.61,10.5,4.62C36.34,19.52,36.81,22,36.17,22.92Z"/></g></g></svg>