<svg xmlns="http://www.w3.org/2000/svg" viewBox="0 0 44.11 47.01"><defs><style>.cls-1{fill:#56176a;}.cls-2{fill:#3e114d;}.cls-3{fill:#7f229c;}.cls-4{fill:#39b54a;}.cls-5{fill:#277a32;}</style></defs><title>eggplant</title><g id="Layer_2" data-name="Layer 2"><g id="Layer_1-2" data-name="Layer 1"><path class="cls-1" d="M35.91,46.23c-5,1.92-11.71,1.59-24.41-16.09C-.72,13.11-.06,6.8,4.42,4.4c11-5.87,4.3,6.08,23.43,15C47.26,28.45,48.43,41.45,35.91,46.23Z"/><path class="cls-2" d="M44,37.86a13.94,13.94,0,0,1-6.55,4.65c-5,1.92-11.7,1.59-24.4-16.09C5.43,15.8,2.81,9.36,3,5.42c-3,3-2.29,9.69,8.49,24.72,12.7,17.68,19.36,18,24.41,16.09C40.68,44.41,43.46,41.4,44,37.86Z"/><path class="cls-3" d="M28.79,23.08c-.06.82-4.83.76-9.21-2.62s-5.72-7.93-4.94-8.21,3.07,3,6.79,5.78S28.94,22.23,28.79,23.08Z"/><path class="cls-4" d="M1.51,12.74A37.53,37.53,0,0,0,5.2,9.34a20.39,20.39,0,0,0,3.25,1.32A20.53,20.53,0,0,0,9.55,7.5,37.16,37.16,0,0,0,14.36,7s-1.21-4.35-4.22-5.6A6.54,6.54,0,0,0,6.29.92a5.51,5.51,0,0,0-2,.55,6.14,6.14,0,0,0-1.45.9A6.69,6.69,0,0,0,.31,5.79C-.82,8.89,1.51,12.74,1.51,12.74Z"/><path class="cls-5" d="M9.55,7.5A37.16,37.16,0,0,0,14.36,7,9.58,9.58,0,0,0,14,6a38.36,38.36,0,0,1-4.48.41A20.27,20.27,0,0,1,8.43,9.58,20.29,20.29,0,0,1,5.17,8.26a36.87,36.87,0,0,1-3.69,3.39A11.85,11.85,0,0,1,0,7.29a10.94,10.94,0,0,0,1.5,5.45A37.53,37.53,0,0,0,5.2,9.34a20.39,20.39,0,0,0,3.25,1.32A20.53,20.53,0,0,0,9.55,7.5Z"/><path class="cls-4" d="M3.94.37C2.7,1,2.05,2.23,2.5,3.11s1.82,1.09,3.07.46S7.45,1.71,7,.82,5.18-.26,3.94.37Z"/></g></g></svg>