<svg id="Layer_1" data-name="Layer 1" xmlns="http://www.w3.org/2000/svg" viewBox="0 0 52.84 55.5"><defs><style>.cls-1{fill:#56176a;}.cls-2{fill:#3e114d;}.cls-3{fill:#7f229c;}.cls-4{fill:#39b54a;}.cls-5{fill:#277a32;}</style></defs><title>vector</title><path class="cls-1" d="M41,50.69c-5.05,1.92-11.71,1.59-24.41-16.1C4.33,17.57,5,11.26,9.47,8.86c11-5.87,4.3,6.08,23.43,15C52.31,32.91,53.48,45.91,41,50.69Z"/><path class="cls-2" d="M49.05,42.32A14,14,0,0,1,42.5,47c-5,1.92-11.7,1.59-24.4-16.1-7.62-10.61-10.24-17-10-21-3.05,3-2.29,9.69,8.49,24.71,12.7,17.69,19.36,18,24.41,16.1C45.72,48.87,48.51,45.86,49.05,42.32Z"/><path class="cls-3" d="M33.84,27.54c-.07.82-4.83.75-9.21-2.62S18.91,17,19.69,16.71s3.06,3,6.79,5.78S34,26.69,33.84,27.54Z"/><path class="cls-4" d="M6.56,17.2a39.07,39.07,0,0,0,3.69-3.4,20.39,20.39,0,0,0,3.25,1.32A21,21,0,0,0,14.6,12a37.16,37.16,0,0,0,4.81-.46S18.2,7.15,15.18,5.89a6.56,6.56,0,0,0-3.84-.51,5.69,5.69,0,0,0-2,.54,6.58,6.58,0,0,0-1.46.91,6.65,6.65,0,0,0-2.48,3.41C4.23,13.35,6.56,17.2,6.56,17.2Z"/><path class="cls-5" d="M14.6,12a37.16,37.16,0,0,0,4.81-.46s-.12-.42-.37-1a37.9,37.9,0,0,1-4.47.41A20.27,20.27,0,0,1,13.48,14a20.29,20.29,0,0,1-3.26-1.32,38.16,38.16,0,0,1-3.69,3.39,11.85,11.85,0,0,1-1.47-4.36,11,11,0,0,0,1.5,5.45,39.07,39.07,0,0,0,3.69-3.4,20.39,20.39,0,0,0,3.25,1.32A21,21,0,0,0,14.6,12Z"/><path class="cls-4" d="M9,4.83C7.75,5.46,7.1,6.69,7.55,7.57S9.37,8.66,10.61,8s1.89-1.86,1.44-2.75S10.23,4.19,9,4.83Z"/></svg>