<svg id="Layer_1" data-name="Layer 1" xmlns="http://www.w3.org/2000/svg" viewBox="0 0 62 57.67"><defs><style>.cls-1{fill:#55a124;}.cls-2{fill:#b4d382;}.cls-3{fill:#dae4b1;}.cls-4{fill:#80c351;}</style></defs><title>vector</title><path class="cls-1" d="M23,46.92a24.8,24.8,0,0,1-8.11-1c-2.58-.9-5-2.86-5.6-5.52A9.51,9.51,0,0,0,8.65,38C7.82,36.52,5.74,36,5,34.5c-1-2,.87-4.36.7-6.62-.11-1.47-1.07-2.71-1.71-4s-.88-3.12.22-4.1C4.89,19.11,6,19,6.82,18.61c2-1,2.6-3.48,3.11-5.65s1.55-4.66,3.74-5.08c.72-.13,1.47,0,2.19-.13,1.54-.25,2.66-1.53,3.82-2.57s2.79-1.95,4.22-1.31c.88.4,1.46,1.31,2.37,1.66,2.31.87,4.28-2.39,6.74-2.4,2.15,0,3.53,2.38,5.58,3,2.45.75,5.5-1.12,7.49.5,1.61,1.3,1.39,4.15,3.18,5.19.71.42,1.67.48,2.16,1.14a2.6,2.6,0,0,1,.38,1.43c.2,3.16.17,6.59-1.74,9.11-2.27,3-6.61,3.85-8.89,6.84-1.43,1.88-1.84,4.32-2.74,6.51-2,4.82-6.59,9.1-11.8,9.1h-.22Z"/><path class="cls-2" d="M56.74,30.47c0,12.19-10.38,22.06-23.17,22.06A23.83,23.83,0,0,1,16.7,45.6c-5.17-5.23-6.79-14.35-4.56-21.23C15,15.69,25.34,11.73,33.55,10.24c7.5-1.37,12.71.25,17.86,6.16A21.52,21.52,0,0,1,56.74,30.47Z"/><path class="cls-3" d="M33.26,51.08a23.61,23.61,0,0,1-3.35-4.47,28.83,28.83,0,0,1-2.35-5.11A23.6,23.6,0,0,1,26.38,36a39.47,39.47,0,0,1-.07-5.65,30,30,0,0,1,.83-5.58,24.67,24.67,0,0,1,2-5.27,18.61,18.61,0,0,1,7.7-7.84l.16.26a18,18,0,0,0-3.87,3.66,18.86,18.86,0,0,0-2.62,4.56,23.29,23.29,0,0,0-1.4,5,27.3,27.3,0,0,0,.24,10.4c.34,1.71.72,3.4,1.12,5.1s.88,3.39,1.4,5.09,1.1,3.41,1.65,5.18Z"/><path class="cls-3" d="M28.36,29.13a9.46,9.46,0,0,1-2.15-.77,9.72,9.72,0,0,1-1.84-1.2A7.09,7.09,0,0,1,23,25.58a11.3,11.3,0,0,1-1-1.86,8.9,8.9,0,0,1-.58-2,8.27,8.27,0,0,1,0-2.17,8.1,8.1,0,0,1,2-4.22l.11,0a7.78,7.78,0,0,0-1,2,6.57,6.57,0,0,0-.35,2.07,7.47,7.47,0,0,0,.24,2A7.66,7.66,0,0,0,23,23.22a8.3,8.3,0,0,0,1.12,1.59c.42.5.87,1,1.32,1.45s.93.94,1.43,1.4,1,.89,1.56,1.37Z"/><path class="cls-3" d="M27.76,24.36a9.19,9.19,0,0,1,1-2.07,9.9,9.9,0,0,1,1.37-1.7,7.13,7.13,0,0,1,1.72-1.25,12.59,12.59,0,0,1,1.95-.78,9,9,0,0,1,2.07-.36,7.94,7.94,0,0,1,2.16.19,8,8,0,0,1,4,2.37l-.06.1a8.49,8.49,0,0,0-1.92-1.22,6.65,6.65,0,0,0-2-.56,7.27,7.27,0,0,0-2,0,8.5,8.5,0,0,0-1.87.52,8.88,8.88,0,0,0-1.7.95c-.53.38-1,.77-1.57,1.17s-1,.83-1.54,1.29-1,.93-1.52,1.41Z"/><path class="cls-3" d="M26.44,33.48a12.64,12.64,0,0,1,3.12-5,8.83,8.83,0,0,1,2.26-1.64,14.09,14.09,0,0,1,2.56-1,11.32,11.32,0,0,1,2.73-.48,10.19,10.19,0,0,1,2.84.25,10.58,10.58,0,0,1,5.27,3.12l-.08.13a10.79,10.79,0,0,0-2.53-1.61A8.68,8.68,0,0,0,40,26.53a9.48,9.48,0,0,0-2.61,0,10.79,10.79,0,0,0-4.69,1.94c-.7.49-1.39,1-2.08,1.53s-1.35,1.1-2,1.69-1.31,1.23-2,1.86Z"/><path class="cls-3" d="M28.8,41.87a11.77,11.77,0,0,1,1.3-2.72,12.48,12.48,0,0,1,1.81-2.25,9.45,9.45,0,0,1,2.26-1.64,15.8,15.8,0,0,1,2.57-1,11.84,11.84,0,0,1,2.72-.48,10.17,10.17,0,0,1,8.12,3.37l-.09.14A10.78,10.78,0,0,0,45,35.65a8.74,8.74,0,0,0-2.66-.73,9.41,9.41,0,0,0-2.6,0A10.79,10.79,0,0,0,35,36.91c-.71.49-1.39,1-2.08,1.53s-1.35,1.1-2,1.7-1.31,1.22-2,1.85Z"/><path class="cls-3" d="M28.75,37.57a13.42,13.42,0,0,1-3.25.29,13.18,13.18,0,0,1-3.1-.44,10,10,0,0,1-2.79-1.19,17.6,17.6,0,0,1-2.37-1.83,12.55,12.55,0,0,1-2-2.27,11.08,11.08,0,0,1-1.36-9.44h.17a11.45,11.45,0,0,0-.1,3.24,9.64,9.64,0,0,0,.79,2.89,9.94,9.94,0,0,0,1.5,2.39,11.35,11.35,0,0,0,2,1.92,11.88,11.88,0,0,0,2.4,1.38c.85.38,1.71.74,2.58,1.09s1.78.65,2.7.94,1.87.54,2.84.83Z"/><path class="cls-4" d="M27.29,43.79a15.19,15.19,0,0,0-7-6.17c-1.33-.58-3.16-.84-4,.35-.59.83-.37,2-.44,3-.18,2.47-2.22,4.84-1.34,7.15.79,2.11,3.44,2.67,5.36,3.85.92.55,1.71,1.3,2.66,1.8,4.11,2.19,13.53,2.57,17.21-.28a1.89,1.89,0,0,0,.87-1.26,1.49,1.49,0,0,0-1.14-1.4,5.48,5.48,0,0,0-1.94-.07C31.45,51.13,30.07,48.49,27.29,43.79Z"/><path class="cls-1" d="M33.34,47.76a7.2,7.2,0,0,0-1.61-.34c.9.07-1.92-3-1.87-2.88-.89-1.25-.83-1.2-1-3a3,3,0,0,0-2.06-2.2,11.75,11.75,0,0,1-2.86-1.29,23.4,23.4,0,0,1-1.85-2.12,2.21,2.21,0,0,0-2.54-.65c-.63.37-.89,1-1.65,1.28-.94.29-1.76-.67-2.85-.11a2.23,2.23,0,0,0-1,2.24c.11,1,1,1.53,1.18,2.35s-.38,1.59-.23,2.43,1.58,1.6,2,.76c.24-.44,0-1,.13-1.49.27-1.12,1.85-1.11,3-.84a1.16,1.16,0,0,1,.71.36c.26.37,0,.87-.08,1.31-.27,1.61,1.87,2.62,2.24,4.21.21.91-.17,2,.47,2.72a2.34,2.34,0,0,0,1.05.54,31,31,0,0,0,7.21,1.29c1.48.09,2.78,1,4.24,1.17,1.69.16,2.82-.61,4.45-1,.55-.13,1.25-.64.9-1.09C38.35,51.08,36.05,48.68,33.34,47.76Z"/><path class="cls-4" d="M36.92,50.86c3.69,2,7.84,1.44,11.74.79a4.75,4.75,0,0,0,1.68-.51c2.33-1.4,1.88-5.74,3.11-8.57.84-1.93,2.44-3.08,3.79-4.48s2.53-3.49,2.09-5.69a29.47,29.47,0,0,0-1.17-3.13c-.65-2.07-.25-4.43-1-6.47a10.48,10.48,0,0,0-2-3.12,16.43,16.43,0,0,0-3.68-3.59,4,4,0,0,0-4.41-.24C45.38,17,44.83,19.76,45,22.23s.77,4.9.78,7.36c0,5.26-2.71,9.75-5.82,13.12-1,1.12-2.16,2.37-2.19,4.12Z"/><path class="cls-1" d="M40.49,36c.52-1.69-.36-3.65.34-5.27a22.78,22.78,0,0,1,1.35-2.06c.73-1.29.67-2.88.8-4.37.49-6,3.93-8.44,8.93-10.59a5,5,0,0,1,2.36-.6c.82.07,1.65.77,1.54,1.58s-.82,1.16-1.25,1.75A4.71,4.71,0,0,0,54,19.65a1.31,1.31,0,0,1-.21,1.05,1.22,1.22,0,0,1-.5.27l-2.43.84a1.82,1.82,0,0,0,.23,1.75,14.21,14.21,0,0,1,1,1.53c1.17,2.58-2.13,3.4-3.26,5a3.21,3.21,0,0,0-.51,3.33c.61,1.06,2.08,1.33,2.67,2.41.84,1.54-.66,3.34-2.15,4.2s-3.33,1.74-3.6,3.49c-.09.59,0,1.21-.09,1.8-.23,1.2-4.17,5-5.36,5.41l-2.51.82a1.54,1.54,0,0,1-1.24,0,1.66,1.66,0,0,1-.55-1.34c-.19-2.44-1.13-7,0-9.19S39.72,38.54,40.49,36Z"/></svg>