<svg xmlns="http://www.w3.org/2000/svg" viewBox="0 0 56.01 52.39"><defs><style>.cls-1{fill:#55a124;}.cls-2{fill:#b4d382;}.cls-3{fill:#dae4b1;}.cls-4{fill:#80c351;}</style></defs><title>lettuce</title><g id="Layer_2" data-name="Layer 2"><g id="Layer_1-2" data-name="Layer 1"><path class="cls-1" d="M19.59,43.8a25.1,25.1,0,0,1-8.11-1C8.9,41.93,6.53,40,5.88,37.31a9.33,9.33,0,0,0-.65-2.41c-.82-1.51-2.91-2-3.68-3.53-1-2,.87-4.36.7-6.62-.11-1.46-1.07-2.7-1.71-4s-.88-3.11.22-4.1c.72-.64,1.77-.71,2.64-1.13,2-1,2.6-3.48,3.11-5.65s1.55-4.67,3.74-5.08c.72-.14,1.47,0,2.19-.14C14,4.37,15.1,3.1,16.26,2.05S19.06.11,20.48.74c.88.4,1.47,1.32,2.37,1.66C25.16,3.27,27.13,0,29.59,0c2.15,0,3.53,2.39,5.58,3,2.46.75,5.5-1.11,7.49.5,1.61,1.3,1.39,4.15,3.18,5.19.71.42,1.67.48,2.16,1.14a2.63,2.63,0,0,1,.38,1.44c.2,3.15.17,6.58-1.73,9.1-2.28,3-6.62,3.85-8.9,6.85-1.43,1.87-1.84,4.31-2.74,6.5-2,4.82-6.58,9.1-11.79,9.1H23Z"/><path class="cls-2" d="M53.32,27.35c0,12.18-10.38,22-23.17,22a23.83,23.83,0,0,1-16.87-6.93C8.11,37.25,6.49,28.12,8.72,21.24,11.53,12.56,21.92,8.6,30.13,7.11c7.5-1.37,12.71.25,17.86,6.16A21.53,21.53,0,0,1,53.32,27.35Z"/><path class="cls-3" d="M29.85,48a23.67,23.67,0,0,1-3.36-4.47,28.19,28.19,0,0,1-2.35-5.11A23.62,23.62,0,0,1,23,32.85a41.15,41.15,0,0,1-.07-5.66,30.07,30.07,0,0,1,.83-5.58,24.87,24.87,0,0,1,2-5.27,18.61,18.61,0,0,1,7.7-7.84l.16.26a18,18,0,0,0-3.87,3.67A18.49,18.49,0,0,0,27.09,17a23.13,23.13,0,0,0-1.4,5,27.51,27.51,0,0,0-.37,5.21,28.18,28.18,0,0,0,.61,5.18c.34,1.71.72,3.4,1.12,5.1s.88,3.39,1.4,5.09,1.1,3.41,1.66,5.18Z"/><path class="cls-3" d="M25,26a8.93,8.93,0,0,1-2.16-.77A8.83,8.83,0,0,1,21,24a7.09,7.09,0,0,1-1.42-1.58,11.68,11.68,0,0,1-1-1.86,8.67,8.67,0,0,1-.58-2,7.88,7.88,0,0,1,0-2.17,8,8,0,0,1,2-4.23l.11.05a7.83,7.83,0,0,0-1,2,6.51,6.51,0,0,0-.35,2.06,7.54,7.54,0,0,0,.24,2,8.23,8.23,0,0,0,.71,1.8,8,8,0,0,0,1.12,1.59c.42.5.87,1,1.32,1.46s.93.94,1.43,1.39,1,.9,1.56,1.37Z"/><path class="cls-3" d="M24.34,21.23a8.91,8.91,0,0,1,1-2.06,9.61,9.61,0,0,1,1.37-1.71,7.13,7.13,0,0,1,1.72-1.25,11.62,11.62,0,0,1,1.95-.77,9,9,0,0,1,2.07-.37,8.35,8.35,0,0,1,2.16.19,8,8,0,0,1,4,2.37l-.06.11a8.2,8.2,0,0,0-1.92-1.23,6.92,6.92,0,0,0-4-.51,8,8,0,0,0-1.87.51,8.56,8.56,0,0,0-1.69,1c-.54.37-1.06.76-1.58,1.16s-1,.83-1.53,1.29-1,.93-1.52,1.41Z"/><path class="cls-3" d="M23,30.35a12.22,12.22,0,0,1,1.31-2.72,12.06,12.06,0,0,1,1.81-2.25,9.26,9.26,0,0,1,2.26-1.64,15.7,15.7,0,0,1,2.56-1,11.83,11.83,0,0,1,2.73-.48,11,11,0,0,1,2.84.25,10.53,10.53,0,0,1,5.27,3.12l-.08.14a11,11,0,0,0-2.52-1.62,8.82,8.82,0,0,0-2.66-.73,9.1,9.1,0,0,0-2.61.06,10.44,10.44,0,0,0-2.46.68,11.36,11.36,0,0,0-2.23,1.25c-.7.49-1.39,1-2.07,1.53s-1.36,1.1-2,1.7-1.31,1.23-2,1.85Z"/><path class="cls-3" d="M25.38,38.74A12.19,12.19,0,0,1,26.68,36a12.48,12.48,0,0,1,1.81-2.25,9.73,9.73,0,0,1,2.26-1.64,15.8,15.8,0,0,1,2.57-1A11.84,11.84,0,0,1,36,30.63a11,11,0,0,1,2.85.25A10.65,10.65,0,0,1,44.16,34l-.09.14a10.78,10.78,0,0,0-2.52-1.62,9,9,0,0,0-2.66-.73,9.4,9.4,0,0,0-2.6.06,10.44,10.44,0,0,0-2.46.68,11.36,11.36,0,0,0-2.23,1.25c-.7.5-1.39,1-2.08,1.54s-1.35,1.09-2,1.69-1.31,1.23-2,1.85Z"/><path class="cls-3" d="M25.34,34.44a13.52,13.52,0,0,1-3.26.3,13.72,13.72,0,0,1-3.1-.45,10.17,10.17,0,0,1-2.79-1.19,17.34,17.34,0,0,1-2.37-1.82,13.4,13.4,0,0,1-2-2.28,11.23,11.23,0,0,1-1.34-2.79,11.45,11.45,0,0,1,0-6.64h.17a11.52,11.52,0,0,0-.1,3.25,9.65,9.65,0,0,0,.79,2.88,10.21,10.21,0,0,0,1.5,2.4,11.3,11.3,0,0,0,2,1.91,11.42,11.42,0,0,0,2.4,1.38c.85.39,1.71.74,2.59,1.09s1.77.65,2.69.94,1.87.54,2.84.83Z"/><path class="cls-4" d="M23.88,40.67a15.28,15.28,0,0,0-7-6.18c-1.33-.58-3.16-.84-4,.35-.59.84-.37,2-.44,3-.18,2.47-2.22,4.85-1.34,7.16.79,2.11,3.44,2.66,5.36,3.84.92.56,1.71,1.3,2.66,1.81,4.11,2.19,13.53,2.56,17.22-.29a1.91,1.91,0,0,0,.86-1.25,1.51,1.51,0,0,0-1.14-1.41,5.48,5.48,0,0,0-1.94-.07C28,48,26.65,45.36,23.88,40.67Z"/><path class="cls-1" d="M29.92,44.63a6.68,6.68,0,0,0-1.61-.33c.9.06-1.92-3-1.87-2.88-.89-1.26-.83-1.2-1-3a3,3,0,0,0-2.05-2.2,11.11,11.11,0,0,1-2.87-1.29,22.11,22.11,0,0,1-1.85-2.12,2.21,2.21,0,0,0-2.53-.65c-.64.38-.9,1.05-1.65,1.28-1,.29-1.77-.66-2.86-.11a2.23,2.23,0,0,0-1,2.24c.11,1,1,1.53,1.18,2.35s-.38,1.6-.23,2.44,1.58,1.59,2,.76c.24-.45,0-1,.13-1.5.27-1.11,1.85-1.11,3-.84a1.16,1.16,0,0,1,.71.36c.26.37,0,.87-.08,1.32-.27,1.6,1.87,2.61,2.24,4.2.21.92-.17,2,.47,2.72a2.25,2.25,0,0,0,1.05.54,31.56,31.56,0,0,0,7.21,1.3c1.48.09,2.78,1,4.24,1.16,1.69.16,2.82-.6,4.46-1,.54-.14,1.24-.65.89-1.09C34.93,48,32.63,45.55,29.92,44.63Z"/><path class="cls-4" d="M33.5,47.74c3.69,2,7.84,1.43,11.74.78A4.75,4.75,0,0,0,46.92,48c2.33-1.4,1.88-5.74,3.11-8.57.84-1.93,2.44-3.07,3.79-4.48s2.54-3.49,2.09-5.69a29.47,29.47,0,0,0-1.17-3.13c-.65-2.07-.25-4.43-1-6.46a10.83,10.83,0,0,0-2-3.13A16.47,16.47,0,0,0,48.06,13a4,4,0,0,0-4.4-.23c-1.7,1.16-2.25,3.91-2.12,6.37s.77,4.9.79,7.37c0,5.26-2.72,9.74-5.82,13.11-1,1.12-2.16,2.37-2.2,4.13Z"/><path class="cls-1" d="M37.07,32.86c.52-1.7-.35-3.65.34-5.28a19.67,19.67,0,0,1,1.36-2c.73-1.3.67-2.89.79-4.38.5-6,3.93-8.44,8.93-10.59a5,5,0,0,1,2.36-.6c.82.08,1.65.77,1.54,1.59s-.82,1.16-1.25,1.74a4.73,4.73,0,0,0-.55,3.24,1.28,1.28,0,0,1-.21,1,1.26,1.26,0,0,1-.5.26l-2.43.84a1.8,1.8,0,0,0,.24,1.75,15.74,15.74,0,0,1,1,1.53c1.17,2.59-2.13,3.4-3.26,5A3.19,3.19,0,0,0,45,30.27c.62,1.06,2.08,1.34,2.67,2.41.84,1.54-.66,3.34-2.15,4.2s-3.33,1.74-3.6,3.49c-.09.59,0,1.21-.09,1.8-.23,1.2-4.16,5-5.35,5.41l-2.52.82a1.5,1.5,0,0,1-1.24,0,1.66,1.66,0,0,1-.55-1.34c-.19-2.43-1.13-7,0-9.19S36.3,35.42,37.07,32.86Z"/></g></g></svg>