<svg xmlns="http://www.w3.org/2000/svg" viewBox="0 0 35.76 51.05"><defs><style>.cls-1{fill:#75a635;}.cls-2{fill:#fec60c;}.cls-3{fill:#e8b50b;}.cls-4{fill:#fce57c;}.cls-5{fill:#8cc63f;}</style></defs><title>main</title><g id="Layer_2" data-name="Layer 2"><g id="Layer_1-2" data-name="Layer 1"><path class="cls-1" d="M22.56,19.25C16.36,29.47,9.56,37.93,8.07,37S10.94,26.18,17.15,16A65.54,65.54,0,0,1,30.55,0,65.74,65.74,0,0,1,22.56,19.25Z"/><path class="cls-2" d="M26,26.78c-8.25,11-20.52,22.75-23.33,20.66S7.57,30.25,15.82,19.2,29.71,5.32,32.52,7.41,34.23,15.72,26,26.78Z"/><path class="cls-3" d="M33.9,10.84c-1,3.16-3.33,7.33-7.28,12.61C18.38,34.51,6.11,46.21,3.3,44.12a2,2,0,0,1-.59-1.65c-.79,2.53-.9,4.34-.06,5C5.46,49.53,17.73,37.83,26,26.78,31.51,19.36,33.82,14.12,33.9,10.84Z"/><path class="cls-4" d="M25.14,14.31c-2.92,2.64-5.6,4.42-6,4s1.65-2.93,4.57-5.56,5.6-4.42,6-4S28.05,11.68,25.14,14.31Z"/><path class="cls-3" d="M21.72,14.94a1.4,1.4,0,0,1,.53,1.57,1.54,1.54,0,0,0,.28-.29,1.4,1.4,0,1,0-2.3-1.59,1.59,1.59,0,0,0-.18.37A1.39,1.39,0,0,1,21.72,14.94Z"/><path class="cls-3" d="M24,16.53a1.4,1.4,0,0,1,.53,1.57,1.54,1.54,0,0,0,.28-.29,1.4,1.4,0,1,0-2.3-1.59,1.59,1.59,0,0,0-.18.37A1.39,1.39,0,0,1,24,16.53Z"/><path class="cls-3" d="M26.32,18.12a1.4,1.4,0,0,1,.53,1.57,1.54,1.54,0,0,0,.28-.29,1.4,1.4,0,1,0-2.3-1.59,1.59,1.59,0,0,0-.18.37A1.39,1.39,0,0,1,26.32,18.12Z"/><path class="cls-3" d="M28.61,19.7a1.41,1.41,0,0,1,.54,1.58,1.54,1.54,0,0,0,.28-.29,1.4,1.4,0,1,0-2.3-1.59,1.59,1.59,0,0,0-.18.37A1.4,1.4,0,0,1,28.61,19.7Z"/><path class="cls-3" d="M20.05,16.53a1.39,1.39,0,0,1,.53,1.57,1.54,1.54,0,0,0,.28-.29,1.4,1.4,0,1,0-2.3-1.59,1.24,1.24,0,0,0-.17.37A1.38,1.38,0,0,1,20.05,16.53Z"/><path class="cls-3" d="M22.35,18.12a1.39,1.39,0,0,1,.53,1.57,1.54,1.54,0,0,0,.28-.29,1.4,1.4,0,1,0-2.3-1.59,1.24,1.24,0,0,0-.17.37A1.38,1.38,0,0,1,22.35,18.12Z"/><path class="cls-3" d="M24.65,19.7a1.4,1.4,0,0,1,.53,1.58,1.54,1.54,0,0,0,.28-.29,1.4,1.4,0,1,0-2.3-1.59,1.24,1.24,0,0,0-.17.37A1.4,1.4,0,0,1,24.65,19.7Z"/><path class="cls-3" d="M27,21.29a1.4,1.4,0,0,1,.53,1.58,1.35,1.35,0,0,0,.28-.3A1.4,1.4,0,1,0,25.46,21a1.31,1.31,0,0,0-.17.36A1.41,1.41,0,0,1,27,21.29Z"/><path class="cls-3" d="M18,18.91a1.4,1.4,0,0,1,.53,1.58,1.33,1.33,0,0,0,.28-.3,1.4,1.4,0,0,0-2.3-1.59,1.37,1.37,0,0,0-.17.37A1.39,1.39,0,0,1,18,18.91Z"/><path class="cls-3" d="M20.26,20.5a1.39,1.39,0,0,1,.53,1.57,1.11,1.11,0,0,0,.28-.29,1.4,1.4,0,0,0-2.3-1.59,1.37,1.37,0,0,0-.17.37A1.39,1.39,0,0,1,20.26,20.5Z"/><path class="cls-3" d="M22.56,22.09a1.39,1.39,0,0,1,.53,1.57,1.11,1.11,0,0,0,.28-.29,1.4,1.4,0,1,0-2.3-1.59,1.37,1.37,0,0,0-.17.37A1.39,1.39,0,0,1,22.56,22.09Z"/><path class="cls-3" d="M24.86,23.68a1.39,1.39,0,0,1,.53,1.57,1.28,1.28,0,0,0,.28-.29,1.4,1.4,0,1,0-2.3-1.59,1.37,1.37,0,0,0-.17.37A1.39,1.39,0,0,1,24.86,23.68Z"/><path class="cls-3" d="M25.73,13.24a1.4,1.4,0,0,1,.53,1.58,1.59,1.59,0,0,0,.29-.29,1.41,1.41,0,0,0-.36-1.95,1.39,1.39,0,0,0-1.94.36,1.27,1.27,0,0,0-.18.37A1.4,1.4,0,0,1,25.73,13.24Z"/><path class="cls-3" d="M28,14.83a1.4,1.4,0,0,1,.53,1.58,1.38,1.38,0,0,0,.29-.3,1.41,1.41,0,0,0-.36-1.94,1.39,1.39,0,0,0-1.94.36,1.06,1.06,0,0,0-.18.37A1.4,1.4,0,0,1,28,14.83Z"/><path class="cls-3" d="M30.33,16.42A1.4,1.4,0,0,1,30.86,18a1.33,1.33,0,0,0,.28-.3,1.39,1.39,0,0,0-2.29-1.59,1.26,1.26,0,0,0-.18.37A1.39,1.39,0,0,1,30.33,16.42Z"/><path class="cls-3" d="M16.39,23a1.39,1.39,0,0,1,.53,1.57,1.54,1.54,0,0,0,.28-.29,1.4,1.4,0,1,0-2.3-1.59,1.24,1.24,0,0,0-.17.37A1.38,1.38,0,0,1,16.39,23Z"/><path class="cls-3" d="M18.69,24.57a1.4,1.4,0,0,1,.53,1.58,1.54,1.54,0,0,0,.28-.29,1.4,1.4,0,1,0-2.3-1.59,1.24,1.24,0,0,0-.17.37A1.4,1.4,0,0,1,18.69,24.57Z"/><path class="cls-3" d="M21,26.16a1.4,1.4,0,0,1,.53,1.58,1.54,1.54,0,0,0,.28-.29,1.4,1.4,0,1,0-2.3-1.59,1.24,1.24,0,0,0-.17.37A1.4,1.4,0,0,1,21,26.16Z"/><path class="cls-3" d="M14.3,27.06a1.39,1.39,0,0,1,.53,1.57,1.54,1.54,0,0,0,.28-.29,1.4,1.4,0,1,0-2.3-1.59,1.24,1.24,0,0,0-.17.37A1.38,1.38,0,0,1,14.3,27.06Z"/><path class="cls-3" d="M16.6,28.65a1.39,1.39,0,0,1,.53,1.57,1.54,1.54,0,0,0,.28-.29,1.4,1.4,0,1,0-2.3-1.59,1.24,1.24,0,0,0-.17.37A1.38,1.38,0,0,1,16.6,28.65Z"/><path class="cls-3" d="M18.9,30.23a1.4,1.4,0,0,1,.53,1.58,1.54,1.54,0,0,0,.28-.29,1.4,1.4,0,1,0-2.3-1.59,1.24,1.24,0,0,0-.17.37A1.4,1.4,0,0,1,18.9,30.23Z"/><path class="cls-3" d="M28.83,11.43A1.4,1.4,0,0,1,29.36,13a1.61,1.61,0,0,0,.28-.3,1.4,1.4,0,0,0-2.3-1.59,1.53,1.53,0,0,0-.17.37A1.39,1.39,0,0,1,28.83,11.43Z"/><path class="cls-3" d="M31.13,13a1.4,1.4,0,0,1,.53,1.58,1.61,1.61,0,0,0,.28-.3,1.4,1.4,0,0,0-2.3-1.59,1.37,1.37,0,0,0-.17.37A1.39,1.39,0,0,1,31.13,13Z"/><path class="cls-3" d="M30.85,9a1.39,1.39,0,0,1,.53,1.57,1.54,1.54,0,0,0,.28-.29,1.4,1.4,0,1,0-2.3-1.59,1.24,1.24,0,0,0-.17.37A1.38,1.38,0,0,1,30.85,9Z"/><path class="cls-5" d="M14.35,28.07C9.37,39.6,3.47,49.35,1.71,48.58S3,36.84,8,25.32A66.46,66.46,0,0,1,19.71,6.84,66.1,66.1,0,0,1,14.35,28.07Z"/><path class="cls-1" d="M14.35,28.07A70.09,70.09,0,0,0,19.49,9.33a69.84,69.84,0,0,1-5.74,18.43c-4.71,10-10.1,18.61-12.5,20,.07.47.22.77.46.87C3.47,49.35,9.37,39.6,14.35,28.07Z"/><path class="cls-5" d="M22.64,36.05C13.42,44.93,3.9,51.62,2.38,50S7.9,39.19,17.12,30.32A61,61,0,0,1,35.76,17.9,61,61,0,0,1,22.64,36.05Z"/><path class="cls-1" d="M35.76,17.9l-.53.21a64,64,0,0,1-12,15.9C14,42.89,4.47,49.58,2.94,48a.83.83,0,0,1-.19-.49C2.15,48.75,2,49.64,2.38,50c1.52,1.59,11-5.1,20.26-14A61,61,0,0,0,35.76,17.9Z"/><path class="cls-5" d="M2.61,50.6.92,49.34a2.28,2.28,0,0,1-.47-3.19h0a2.28,2.28,0,0,1,3.19-.47L5.34,47a2.27,2.27,0,0,1,.46,3.19h0A2.27,2.27,0,0,1,2.61,50.6Z"/><path class="cls-1" d="M5.88,47.54a2.18,2.18,0,0,1-.41,1A2.27,2.27,0,0,1,2.28,49L.58,47.74A2.32,2.32,0,0,1,0,47.15a2.27,2.27,0,0,0,.88,2.19L2.61,50.6a2.27,2.27,0,0,0,3.27-3.06Z"/></g></g></svg>