<svg id="Layer_1" data-name="Layer 1" xmlns="http://www.w3.org/2000/svg" viewBox="0 0 43.29 57.5"><defs><style>.cls-1{fill:#75a635;}.cls-2{fill:#fec60c;}.cls-3{fill:#e8b50b;}.cls-4{fill:#fce57c;}.cls-5{fill:#8cc63f;}</style></defs><title>vector</title><path class="cls-1" d="M25.59,23.25c-6.21,10.22-13,18.67-14.5,17.76S14,30.18,20.17,20A65.73,65.73,0,0,1,33.57,4,66,66,0,0,1,25.59,23.25Z"/><path class="cls-2" d="M29,30.77C20.75,41.82,8.48,53.53,5.68,51.43s4.91-17.19,13.16-28.24S32.74,9.31,35.54,11.4,37.25,19.72,29,30.77Z"/><path class="cls-3" d="M36.92,14.84c-1,3.15-3.33,7.32-7.27,12.61C21.4,38.5,9.13,50.2,6.32,48.11a2,2,0,0,1-.58-1.65c-.8,2.53-.91,4.34-.06,5,2.8,2.1,15.07-9.61,23.32-20.66C34.54,23.35,36.85,18.12,36.92,14.84Z"/><path class="cls-4" d="M28.16,18.3c-2.92,2.64-5.6,4.42-6,4s1.65-2.92,4.57-5.56,5.6-4.41,6-4S31.07,15.67,28.16,18.3Z"/><path class="cls-3" d="M24.74,18.93a1.4,1.4,0,0,1,.53,1.58,1.61,1.61,0,0,0,.28-.3,1.4,1.4,0,0,0-2.3-1.59,1.37,1.37,0,0,0-.17.37A1.39,1.39,0,0,1,24.74,18.93Z"/><path class="cls-3" d="M27,20.52a1.39,1.39,0,0,1,.53,1.57,1.29,1.29,0,0,0,.28-.29,1.4,1.4,0,0,0-2.3-1.59,1.37,1.37,0,0,0-.17.37A1.39,1.39,0,0,1,27,20.52Z"/><path class="cls-3" d="M29.34,22.11a1.39,1.39,0,0,1,.53,1.57,1.29,1.29,0,0,0,.28-.29,1.4,1.4,0,0,0-2.3-1.59,1.37,1.37,0,0,0-.17.37A1.39,1.39,0,0,1,29.34,22.11Z"/><path class="cls-3" d="M31.64,23.7a1.39,1.39,0,0,1,.53,1.57,1.29,1.29,0,0,0,.28-.29,1.4,1.4,0,1,0-2.3-1.59,1.37,1.37,0,0,0-.17.37A1.39,1.39,0,0,1,31.64,23.7Z"/><path class="cls-3" d="M23.07,20.52a1.39,1.39,0,0,1,.53,1.57,1.14,1.14,0,0,0,.29-.29,1.4,1.4,0,1,0-2.48-1.22A1.39,1.39,0,0,1,23.07,20.52Z"/><path class="cls-3" d="M25.37,22.11a1.39,1.39,0,0,1,.53,1.57,1.33,1.33,0,0,0,.29-.29,1.4,1.4,0,1,0-2.48-1.22A1.39,1.39,0,0,1,25.37,22.11Z"/><path class="cls-3" d="M27.67,23.7a1.39,1.39,0,0,1,.53,1.57,1.11,1.11,0,0,0,.28-.29,1.39,1.39,0,1,0-2.29-1.59,1.15,1.15,0,0,0-.18.37A1.39,1.39,0,0,1,27.67,23.7Z"/><path class="cls-3" d="M30,25.29a1.39,1.39,0,0,1,.53,1.57,1.28,1.28,0,0,0,.28-.29A1.4,1.4,0,1,0,28.48,25a1.37,1.37,0,0,0-.17.37A1.39,1.39,0,0,1,30,25.29Z"/><path class="cls-3" d="M21,22.9a1.39,1.39,0,0,1,.53,1.58,1.18,1.18,0,0,0,.29-.3,1.4,1.4,0,1,0-2.3-1.58,1.35,1.35,0,0,0-.18.36A1.39,1.39,0,0,1,21,22.9Z"/><path class="cls-3" d="M23.28,24.49a1.39,1.39,0,0,1,.53,1.58,1.38,1.38,0,0,0-.07-2.24,1.4,1.4,0,0,0-1.94.35,1.57,1.57,0,0,0-.18.37A1.39,1.39,0,0,1,23.28,24.49Z"/><path class="cls-3" d="M25.58,26.08a1.39,1.39,0,0,1,.53,1.58A1.38,1.38,0,0,0,26,25.42a1.4,1.4,0,0,0-1.94.35,1.57,1.57,0,0,0-.18.37A1.39,1.39,0,0,1,25.58,26.08Z"/><path class="cls-3" d="M27.88,27.67a1.39,1.39,0,0,1,.53,1.58A1.38,1.38,0,0,0,28.34,27a1.39,1.39,0,0,0-2.12.72A1.39,1.39,0,0,1,27.88,27.67Z"/><path class="cls-3" d="M28.75,17.24a1.38,1.38,0,0,1,.53,1.57,1.14,1.14,0,0,0,.29-.29,1.4,1.4,0,1,0-2.48-1.22A1.4,1.4,0,0,1,28.75,17.24Z"/><path class="cls-3" d="M31.05,18.83a1.38,1.38,0,0,1,.53,1.57,1.33,1.33,0,0,0,.29-.29,1.4,1.4,0,1,0-2.48-1.22A1.4,1.4,0,0,1,31.05,18.83Z"/><path class="cls-3" d="M33.35,20.42A1.38,1.38,0,0,1,33.88,22a1.33,1.33,0,0,0,.29-.29,1.4,1.4,0,1,0-2.3-1.59,1.27,1.27,0,0,0-.18.37A1.38,1.38,0,0,1,33.35,20.42Z"/><path class="cls-3" d="M19.41,27a1.39,1.39,0,0,1,.53,1.57,1.11,1.11,0,0,0,.28-.29,1.4,1.4,0,0,0-2.3-1.59,1.37,1.37,0,0,0-.17.37A1.39,1.39,0,0,1,19.41,27Z"/><path class="cls-3" d="M21.71,28.57a1.39,1.39,0,0,1,.53,1.57,1.11,1.11,0,0,0,.28-.29,1.4,1.4,0,0,0-2.3-1.59,1.37,1.37,0,0,0-.17.37A1.39,1.39,0,0,1,21.71,28.57Z"/><path class="cls-3" d="M24,30.16a1.39,1.39,0,0,1,.53,1.57,1.11,1.11,0,0,0,.28-.29,1.4,1.4,0,1,0-2.3-1.59,1.37,1.37,0,0,0-.17.37A1.39,1.39,0,0,1,24,30.16Z"/><path class="cls-3" d="M17.32,31.05a1.38,1.38,0,0,1,.53,1.57,1.14,1.14,0,0,0,.29-.29,1.4,1.4,0,1,0-2.48-1.22A1.39,1.39,0,0,1,17.32,31.05Z"/><path class="cls-3" d="M19.62,32.64a1.38,1.38,0,0,1,.53,1.57,1.14,1.14,0,0,0,.29-.29A1.4,1.4,0,1,0,18,32.7,1.39,1.39,0,0,1,19.62,32.64Z"/><path class="cls-3" d="M21.92,34.23a1.38,1.38,0,0,1,.53,1.57,1.14,1.14,0,0,0,.29-.29,1.4,1.4,0,1,0-2.48-1.22A1.39,1.39,0,0,1,21.92,34.23Z"/><path class="cls-3" d="M31.85,15.43A1.39,1.39,0,0,1,32.38,17a1.54,1.54,0,0,0,.28-.29,1.4,1.4,0,1,0-2.3-1.59,1.24,1.24,0,0,0-.17.37A1.38,1.38,0,0,1,31.85,15.43Z"/><path class="cls-3" d="M34.15,17a1.39,1.39,0,0,1,.53,1.57A1.54,1.54,0,0,0,35,18.3a1.4,1.4,0,1,0-2.3-1.59,1.24,1.24,0,0,0-.17.37A1.38,1.38,0,0,1,34.15,17Z"/><path class="cls-3" d="M33.87,13a1.4,1.4,0,0,1,.53,1.58,1.33,1.33,0,0,0,.28-.3,1.4,1.4,0,0,0-2.3-1.59,1.37,1.37,0,0,0-.17.37A1.39,1.39,0,0,1,33.87,13Z"/><path class="cls-5" d="M17.37,32.07C12.4,43.59,6.5,53.34,4.73,52.58S6,40.84,11,29.31A66,66,0,0,1,22.74,10.84,66.35,66.35,0,0,1,17.37,32.07Z"/><path class="cls-1" d="M17.37,32.07a69.75,69.75,0,0,0,5.14-18.75,69.87,69.87,0,0,1-5.73,18.44C12.06,41.77,6.67,50.37,4.27,51.7c.07.47.22.77.46.88C6.5,53.34,12.4,43.59,17.37,32.07Z"/><path class="cls-5" d="M25.66,40.05C16.45,48.92,6.92,55.61,5.4,54s5.52-10.85,14.74-19.72A61.21,61.21,0,0,1,38.78,21.89,61.12,61.12,0,0,1,25.66,40.05Z"/><path class="cls-1" d="M38.78,21.89l-.53.22a63.72,63.72,0,0,1-12,15.9C17,46.88,7.49,53.57,6,52a.75.75,0,0,1-.2-.48C5.17,52.75,5,53.63,5.4,54c1.52,1.58,11-5.11,20.26-14A61.12,61.12,0,0,0,38.78,21.89Z"/><path class="cls-5" d="M5.64,54.6l-1.7-1.27a2.27,2.27,0,0,1-.46-3.19h0a2.27,2.27,0,0,1,3.19-.46l1.69,1.26a2.28,2.28,0,0,1,.47,3.19h0A2.28,2.28,0,0,1,5.64,54.6Z"/><path class="cls-1" d="M8.91,51.53A2.28,2.28,0,0,1,5.3,53L3.61,51.73a2.36,2.36,0,0,1-.55-.59,2.27,2.27,0,0,0,.88,2.19l1.7,1.27a2.28,2.28,0,0,0,3.27-3.07Z"/></svg>