<svg xmlns="http://www.w3.org/2000/svg" viewBox="0 0 43.45 46.91"><defs><style>.cls-1{fill:#ffeed2;}.cls-2{fill:#e8d9bf;}.cls-3{fill:#fff7eb;}.cls-4{fill:#743d20;}.cls-5{fill:#522b17;}.cls-6{fill:#944e29;}</style></defs><title>mushroom</title><g id="Layer_2" data-name="Layer 2"><g id="Layer_1-2" data-name="Layer 1"><path class="cls-1" d="M31.92,34.53c0,9.23-4.57,12.38-10.2,12.38S11.53,43.76,11.53,34.53s4.56-21.06,10.19-21.06S31.92,25.29,31.92,34.53Z"/><path class="cls-2" d="M25.07,14.88c2.72,4.27,4.52,11.07,4.52,16.86,0,9.24-4.57,12.39-10.2,12.39a10.06,10.06,0,0,1-6.26-1.89c1.81,3.37,5,4.67,8.59,4.67,5.63,0,10.2-3.15,10.2-12.38C31.92,27.22,29.06,18.29,25.07,14.88Z"/><path class="cls-3" d="M16.89,29.23c-.63,3-1.85,5.34-2.7,5.18s-1-2.73-.4-5.74,1.85-5.34,2.71-5.18S17.53,26.22,16.89,29.23Z"/><path class="cls-4" d="M43.45,15.79c0,6.16-9.73,6.51-21.73,6.51S0,22,0,15.79,9.73,0,21.72,0,43.45,9.64,43.45,15.79Z"/><path class="cls-5" d="M33.36,3.09C37.42,6.3,40,10.34,40,13.47c0,6.16-9.73,6.5-21.73,6.5C11.1,20,4.78,19.85.82,18.46c2.58,3.59,11,3.84,20.9,3.84,12,0,21.73-.35,21.73-6.51C43.45,11.83,39.42,6.44,33.36,3.09Z"/><path class="cls-6" d="M13.26,9.29c-3.16,1.7-6.31,2.15-7,1s1.28-3.45,4.44-5.15,6.31-2.15,7-1S16.43,7.59,13.26,9.29Z"/></g></g></svg>