<svg id="Layer_1" data-name="Layer 1" xmlns="http://www.w3.org/2000/svg" viewBox="0 0 50.45 49.58"><defs><style>.cls-1{fill:#ffeed2;}.cls-2{fill:#e8d9bf;}.cls-3{fill:#fff7eb;}.cls-4{fill:#743d20;}.cls-5{fill:#522b17;}.cls-6{fill:#944e29;}</style></defs><title>vector</title><path class="cls-1" d="M35.42,35.86c0,9.24-4.57,12.39-10.2,12.39S15,45.1,15,35.86,19.59,14.8,25.22,14.8,35.42,26.63,35.42,35.86Z"/><path class="cls-2" d="M28.57,16.21c2.72,4.28,4.52,11.08,4.52,16.86,0,9.24-4.57,12.39-10.2,12.39a10.12,10.12,0,0,1-6.26-1.88c1.81,3.37,5,4.67,8.59,4.67,5.63,0,10.2-3.15,10.2-12.39C35.42,28.55,32.56,19.62,28.57,16.21Z"/><path class="cls-3" d="M20.39,30.57c-.63,3-1.85,5.33-2.7,5.17s-1-2.73-.4-5.74,1.85-5.33,2.71-5.18S21,27.55,20.39,30.57Z"/><path class="cls-4" d="M47,17.13c0,6.15-9.73,6.5-21.73,6.5S3.5,23.28,3.5,17.13s9.73-15.8,21.72-15.8S47,11,47,17.13Z"/><path class="cls-5" d="M36.86,4.43c4.06,3.2,6.59,7.24,6.59,10.37,0,6.16-9.73,6.51-21.73,6.51-7.12,0-13.44-.13-17.4-1.51,2.58,3.59,11,3.83,20.9,3.83,12,0,21.73-.35,21.73-6.5C47,13.17,42.92,7.77,36.86,4.43Z"/><path class="cls-6" d="M16.76,10.63c-3.16,1.7-6.31,2.14-7,1S11,8.17,14.18,6.47s6.31-2.15,7-1S19.93,8.93,16.76,10.63Z"/></svg>