<svg xmlns="http://www.w3.org/2000/svg" viewBox="0 0 29.97 41.67"><defs><style>.cls-1{fill:#8e3d19;}.cls-2{fill:#ff9a3e;}.cls-3{fill:#e77e24;}.cls-4{fill:#ffbb7d;}</style></defs><title>onion_orange</title><g id="Layer_2" data-name="Layer 2"><g id="Layer_1-2" data-name="Layer 1"><path class="cls-1" d="M15.85,41.67H14.12a1.52,1.52,0,0,1-1.52-1.52h0a1.52,1.52,0,0,1,1.52-1.52h1.73a1.53,1.53,0,0,1,1.53,1.52h0A1.53,1.53,0,0,1,15.85,41.67Z"/><path class="cls-2" d="M21.5,8.87a36.57,36.57,0,0,1-13,0C9.84,5.92,12.58,3.08,12.58,0h4.81C17.39,3.08,20.13,5.92,21.5,8.87Z"/><path class="cls-3" d="M21.22,8.3c-.79.34-1.6.66-2.42,1,.91-.1,1.81-.22,2.7-.39C21.41,8.68,21.32,8.49,21.22,8.3Zm-1.1-1.89C18.81,4.31,17.39,2.22,17.39,0H14.76C15.73,2.42,18.09,4.36,20.12,6.41Z"/><path class="cls-2" d="M30,24c0,9.69-6.71,16.73-15,16.73S0,33.65,0,24,6.71,6.41,15,6.41,30,14.27,30,24Z"/><path class="cls-3" d="M22.89,9.05a19.27,19.27,0,0,1,3.88,11.78c0,9.69-6.71,16.73-15,16.73A14.13,14.13,0,0,1,3.5,34.89,14.35,14.35,0,0,0,15,40.69c8.27,0,15-7,15-16.73A18.38,18.38,0,0,0,22.89,9.05Z"/><path class="cls-4" d="M12.91,19.87c-1.69,3.86-4.92,5.79-7.39,4.7S2.28,19.81,4,16s5.07-6.11,7.54-5S14.61,16,12.91,19.87Z"/><path class="cls-3" d="M15.05,40.69a7.43,7.43,0,0,1-2.76-.4A9.54,9.54,0,0,1,9.79,39,13.26,13.26,0,0,1,6.21,34.6a20.31,20.31,0,0,1-1.9-5.33A26.94,26.94,0,0,1,4,20.82,23.89,23.89,0,0,1,4.43,18a21.84,21.84,0,0,1,1.92-5.32,14,14,0,0,1,3.5-4.42,9.36,9.36,0,0,1,2.44-1.43,7.08,7.08,0,0,1,2.76-.45,7.59,7.59,0,0,0-2.67.65,9.24,9.24,0,0,0-2.27,1.53,11.71,11.71,0,0,0-1.8,2.05A17,17,0,0,0,6.92,13a23.14,23.14,0,0,0-1.74,5.19,27.07,27.07,0,0,0-.58,5.46,25.61,25.61,0,0,0,.47,5.46,20.58,20.58,0,0,0,1.7,5.2A13.26,13.26,0,0,0,10,38.64a9.32,9.32,0,0,0,2.32,1.45A8.48,8.48,0,0,0,15.05,40.69Z"/><path class="cls-3" d="M15.05,6.41a7.05,7.05,0,0,1,2.76.45,9.36,9.36,0,0,1,2.44,1.43,14,14,0,0,1,3.5,4.42,24.29,24.29,0,0,1,2.57,10.93,26.59,26.59,0,0,1-.53,5.63A19.93,19.93,0,0,1,23.9,34.6,13.17,13.17,0,0,1,20.31,39a9.48,9.48,0,0,1-2.49,1.33,7.48,7.48,0,0,1-2.77.4,8.48,8.48,0,0,0,2.69-.6,9,9,0,0,0,2.32-1.45,13.37,13.37,0,0,0,3.27-4.33,20.58,20.58,0,0,0,1.7-5.2,26.28,26.28,0,0,0,.48-5.46,27.08,27.08,0,0,0-.59-5.46A22.17,22.17,0,0,0,23.18,13a16.91,16.91,0,0,0-1.38-2.36A12.19,12.19,0,0,0,20,8.59a9.18,9.18,0,0,0-2.26-1.53A7.69,7.69,0,0,0,15.05,6.41Z"/><path class="cls-3" d="M14.37,40.69a2.61,2.61,0,0,1-1.19-.23,4.32,4.32,0,0,1-1-.68,8.12,8.12,0,0,1-1.5-2,18.67,18.67,0,0,1-1.74-4.56A38.92,38.92,0,0,1,7.85,23.6,40.92,40.92,0,0,1,9,13.94a20.3,20.3,0,0,1,1.73-4.56,8.57,8.57,0,0,1,1.44-2,4.46,4.46,0,0,1,1-.72,2.45,2.45,0,0,1,1.18-.26,2.33,2.33,0,0,0-1.12.37,4.11,4.11,0,0,0-.89.77,9.07,9.07,0,0,0-1.26,2,21.75,21.75,0,0,0-1.45,4.53c-.17.78-.31,1.57-.44,2.35S9,18,8.91,18.82c-.15,1.59-.24,3.19-.24,4.79a47.73,47.73,0,0,0,.18,4.78,37.43,37.43,0,0,0,.69,4.73A19.62,19.62,0,0,0,11,37.64a8.06,8.06,0,0,0,.57,1,7.39,7.39,0,0,0,.73.94A3.11,3.11,0,0,0,14.37,40.69Z"/><path class="cls-3" d="M14.37,6.41a2.4,2.4,0,0,1,1.18.26,4.46,4.46,0,0,1,1,.72,8.61,8.61,0,0,1,1.45,2,20.76,20.76,0,0,1,1.72,4.56,39.9,39.9,0,0,1,1.17,9.66,38.91,38.91,0,0,1-1.06,9.67,18.69,18.69,0,0,1-1.75,4.56,7.83,7.83,0,0,1-1.49,2,4.18,4.18,0,0,1-1,.68,2.56,2.56,0,0,1-1.19.23,3.15,3.15,0,0,0,2.06-1.07,8,8,0,0,0,1.3-2,19.62,19.62,0,0,0,1.48-4.52,37.68,37.68,0,0,0,.68-4.73,44.93,44.93,0,0,0,.18-4.78,47.86,47.86,0,0,0-.24-4.79,39.73,39.73,0,0,0-.73-4.73,22.38,22.38,0,0,0-1.46-4.53,8.68,8.68,0,0,0-1.25-2,4.36,4.36,0,0,0-.89-.77A2.37,2.37,0,0,0,14.37,6.41Z"/><path class="cls-3" d="M14.37,6.41c.23,2.94.37,5.87.49,8.81.07,1.47.1,2.94.15,4.41l.11,4.4.06,4.41c0,1.47,0,2.94,0,4.41,0,2.94,0,5.88-.15,8.82-.22-2.93-.37-5.87-.49-8.81-.06-1.47-.1-2.93-.15-4.4l-.11-4.41-.06-4.41c0-1.47,0-2.94,0-4.41C14.23,12.29,14.26,9.35,14.37,6.41Z"/></g></g></svg>