<svg id="Layer_1" data-name="Layer 1" xmlns="http://www.w3.org/2000/svg" viewBox="0 0 35.39 47.24"><defs><style>.cls-1{fill:#8e3d19;}.cls-2{fill:#ff9a3e;}.cls-3{fill:#e77e24;}.cls-4{fill:#ffbb7d;}</style></defs><title>vector</title><path class="cls-1" d="M18.51,45.84H16.77a1.53,1.53,0,0,1-1.52-1.53h0a1.53,1.53,0,0,1,1.52-1.52h1.74A1.53,1.53,0,0,1,20,44.31h0A1.53,1.53,0,0,1,18.51,45.84Z"/><path class="cls-2" d="M24.16,13a37.09,37.09,0,0,1-13,0c1.37-3,4.11-5.79,4.11-8.88H20C20,7.25,22.78,10.08,24.16,13Z"/><path class="cls-3" d="M23.87,12.46c-.79.35-1.6.67-2.42,1,.91-.09,1.81-.22,2.71-.38Zm-1.1-1.89C21.46,8.47,20,6.38,20,4.16H17.42C18.39,6.58,20.74,8.52,22.77,10.57Z"/><path class="cls-2" d="M32.62,28.13c0,9.69-6.71,16.73-15,16.73s-15-7-15-16.73,6.71-17.55,15-17.55S32.62,18.43,32.62,28.13Z"/><path class="cls-3" d="M25.54,13.22A19.22,19.22,0,0,1,29.42,25c0,9.69-6.71,16.73-15,16.73a14.06,14.06,0,0,1-8.28-2.67,14.33,14.33,0,0,0,11.49,5.81c8.27,0,15-7,15-16.73A18.36,18.36,0,0,0,25.54,13.22Z"/><path class="cls-4" d="M15.57,24c-1.7,3.86-4.93,5.78-7.4,4.7S4.93,24,6.63,20.11s5.07-6.11,7.54-5S17.26,20.18,15.57,24Z"/><path class="cls-3" d="M17.7,44.86a7.64,7.64,0,0,1-2.76-.4,9.51,9.51,0,0,1-2.49-1.34,13.17,13.17,0,0,1-3.59-4.36A20.18,20.18,0,0,1,7,33.43a27.23,27.23,0,0,1-.53-5.62A26.71,26.71,0,0,1,6.61,25a24.25,24.25,0,0,1,.47-2.79A21.91,21.91,0,0,1,9,16.88a14.23,14.23,0,0,1,3.5-4.43A9.38,9.38,0,0,1,15,11a7,7,0,0,1,2.75-.45,7.64,7.64,0,0,0-2.67.65,8.88,8.88,0,0,0-2.27,1.53A11.36,11.36,0,0,0,11,14.81a15.89,15.89,0,0,0-1.39,2.36,23,23,0,0,0-1.74,5.19,27,27,0,0,0-.58,5.45,27.07,27.07,0,0,0,.47,5.47,20.91,20.91,0,0,0,1.7,5.19,13.55,13.55,0,0,0,3.27,4.34A9.28,9.28,0,0,0,15,44.25,8.23,8.23,0,0,0,17.7,44.86Z"/><path class="cls-3" d="M17.7,10.58a7.05,7.05,0,0,1,2.76.45,9.33,9.33,0,0,1,2.44,1.42,14.08,14.08,0,0,1,3.5,4.43A24.37,24.37,0,0,1,29,27.81a27.23,27.23,0,0,1-.53,5.62,20.18,20.18,0,0,1-1.9,5.33A13.17,13.17,0,0,1,23,43.12a9.23,9.23,0,0,1-2.49,1.34,7.69,7.69,0,0,1-2.77.4,8.23,8.23,0,0,0,2.69-.61,8.94,8.94,0,0,0,2.32-1.44A13.4,13.4,0,0,0,26,38.47a20.53,20.53,0,0,0,1.71-5.19,27.07,27.07,0,0,0,.47-5.47,27.71,27.71,0,0,0-.58-5.45,23,23,0,0,0-1.74-5.19,16.8,16.8,0,0,0-1.39-2.36,12.2,12.2,0,0,0-1.8-2.06,9.11,9.11,0,0,0-2.27-1.52A7.69,7.69,0,0,0,17.7,10.58Z"/><path class="cls-3" d="M17,44.86a2.55,2.55,0,0,1-1.18-.24,3.92,3.92,0,0,1-1-.68A7.6,7.6,0,0,1,13.32,42a18.37,18.37,0,0,1-1.75-4.57,38.86,38.86,0,0,1-1.06-9.67,39.76,39.76,0,0,1,1.17-9.65,19.7,19.7,0,0,1,1.72-4.57,8.51,8.51,0,0,1,1.44-2,4.17,4.17,0,0,1,1-.72A2.34,2.34,0,0,1,17,10.58,2.33,2.33,0,0,0,15.9,11a3.81,3.81,0,0,0-.89.76,8.89,8.89,0,0,0-1.25,2,21.67,21.67,0,0,0-1.46,4.54c-.17.78-.31,1.56-.44,2.35s-.21,1.58-.29,2.38a47.52,47.52,0,0,0-.25,4.78c0,1.6,0,3.2.18,4.79a37.7,37.7,0,0,0,.69,4.73,19.94,19.94,0,0,0,1.48,4.52c.17.36.37.7.57,1a8.06,8.06,0,0,0,.73.93A3.16,3.16,0,0,0,17,44.86Z"/><path class="cls-3" d="M17,10.58a2.35,2.35,0,0,1,1.19.26,4.12,4.12,0,0,1,1,.72,8.77,8.77,0,0,1,1.45,2,20.16,20.16,0,0,1,1.72,4.57,39.76,39.76,0,0,1,1.17,9.65,38.86,38.86,0,0,1-1.06,9.67A18.37,18.37,0,0,1,20.73,42a7.6,7.6,0,0,1-1.49,1.94,3.92,3.92,0,0,1-1,.68,2.57,2.57,0,0,1-1.19.24,3.16,3.16,0,0,0,2.06-1.08,7.83,7.83,0,0,0,1.3-2,19.94,19.94,0,0,0,1.48-4.52,37.7,37.7,0,0,0,.69-4.73c.13-1.59.2-3.19.18-4.79A47.52,47.52,0,0,0,22.48,23a39.73,39.73,0,0,0-.73-4.73,21.67,21.67,0,0,0-1.46-4.54,8.89,8.89,0,0,0-1.25-2,4,4,0,0,0-.89-.76A2.37,2.37,0,0,0,17,10.58Z"/><path class="cls-3" d="M17,10.58c.23,2.93.38,5.87.49,8.8.07,1.47.1,2.94.16,4.41l.1,4.41.07,4.41c0,1.47,0,2.93,0,4.4,0,2.94,0,5.88-.15,8.83-.22-2.94-.37-5.88-.48-8.81-.07-1.47-.11-2.94-.16-4.41L17,28.21l-.07-4.4c0-1.47,0-2.94,0-4.41C16.88,16.46,16.91,13.52,17,10.58Z"/></svg>