<svg xmlns="http://www.w3.org/2000/svg" viewBox="0 0 42.36 44.19"><defs><style>.cls-1{fill:#e6b2c1;}.cls-2{fill:#b97383;}.cls-3{fill:#e0aebc;}.cls-4{fill:#ffdbdd;}.cls-5{fill:#ffedee;}.cls-6{fill:#ebbcc0;}</style></defs><title>onion</title><g id="Layer_2" data-name="Layer 2"><g id="Layer_1-2" data-name="Layer 1"><path class="cls-1" d="M28.84,9.06a42.86,42.86,0,0,1-15.32,0c1.4-3,4.2-5.91,4.2-9.06h6.93C24.65,3.15,27.44,6,28.84,9.06Z"/><path class="cls-2" d="M22.55,44.19H19.81a1.9,1.9,0,0,1-1.89-1.9h0a1.9,1.9,0,0,1,1.89-1.9h2.74a1.91,1.91,0,0,1,1.9,1.9h0A1.91,1.91,0,0,1,22.55,44.19Z"/><ellipse class="cls-3" cx="21.18" cy="24.67" rx="21.18" ry="18.13"/><path class="cls-2" d="M37.43,13a19.59,19.59,0,0,1,2.76,10.07A19.15,19.15,0,0,1,21.28,42.48,19.14,19.14,0,0,1,2.38,23.11,19.66,19.66,0,0,1,5.45,12.52,16.72,16.72,0,0,0,0,24.67c0,10,9.48,18.13,21.18,18.13s21.18-8.12,21.18-18.13A16.57,16.57,0,0,0,37.43,13Z"/><ellipse class="cls-4" cx="21.18" cy="24.67" rx="15.24" ry="18.13"/><path class="cls-5" d="M18.46,19.07c-1.43,4.05-4.17,6.78-6.12,6.09s-2.36-4.53-.93-8.58,4.17-6.77,6.12-6.09S19.89,15,18.46,19.07Z"/><path class="cls-6" d="M28.88,9a20.29,20.29,0,0,1,3.19,11.09c0,10-6.82,18.14-15.24,18.14a13.43,13.43,0,0,1-7.7-2.48c2.79,4.28,7.15,7,12,7,8.42,0,15.25-8.12,15.25-18.13C36.43,18,33.39,12.16,28.88,9Z"/><path class="cls-2" d="M34.31,15.46a32.58,32.58,0,0,1,.53,5.86c0,11.69-6.07,21.17-13.56,21.17S7.72,33,7.72,21.32a32.11,32.11,0,0,1,.65-6.47,20.55,20.55,0,0,0-2.43,9.82c0,10,6.82,18.13,15.24,18.13s15.25-8.12,15.25-18.13A20.7,20.7,0,0,0,34.31,15.46Z"/><path class="cls-4" d="M27,9.06a24.68,24.68,0,0,1-11.59,0C16.45,6,18.56,3.15,18.56,0H23.8C23.8,3.15,25.92,6,27,9.06Z"/></g></g></svg>