<svg xmlns="http://www.w3.org/2000/svg" viewBox="0 0 42.66 53.03"><defs><style>.cls-1{fill:#39b54a;}.cls-2{fill:#2c8c39;}.cls-3{fill:#ed1c24;}.cls-4{fill:#cc181f;}.cls-5{fill:#ff545b;}</style></defs><title>pepper_red</title><g id="Layer_2" data-name="Layer 2"><g id="Layer_1-2" data-name="Layer 1"><path class="cls-1" d="M21.64,14.71c-.19-.4-.36-.76-.53-1.15s-.34-.76-.49-1.15c-.31-.77-.6-1.56-.86-2.37a22.27,22.27,0,0,1-.63-2.53c-.07-.44-.14-.89-.17-1.36a8.27,8.27,0,0,1,0-1.49A5.75,5.75,0,0,1,19.36,3a4.71,4.71,0,0,1,.47-.88l.33-.43.33-.33a4.81,4.81,0,0,1,1.68-1A5.13,5.13,0,0,1,24.07,0a8.36,8.36,0,0,1,3.18.74,11.52,11.52,0,0,1,1.31.67c.21.12.42.24.62.38l.31.21.15.11.19.14a2.36,2.36,0,1,1-3.09,3.56s0,0,0,0l-.08-.07-.18-.16-.37-.3a7.55,7.55,0,0,0-.77-.53,4.61,4.61,0,0,0-1.43-.59,1.61,1.61,0,0,0-.48,0,1,1,0,0,0-.39.15l-.11.08-.06,0a.56.56,0,0,0-.13.16,2.08,2.08,0,0,0-.25.64,5.12,5.12,0,0,0-.12.92,9,9,0,0,0,0,1,17.29,17.29,0,0,0,.27,2.21q.21,1.13.51,2.25c.1.37.2.75.31,1.12s.24.75.36,1.09v0a1.17,1.17,0,0,1-2.15.89Z"/><path class="cls-2" d="M30.57,3.45a2.26,2.26,0,0,1-.58,1,2.91,2.91,0,0,1-3.75.23l-.06-.05-.09-.07-.19-.16-.42-.3c-.29-.19-.59-.37-.88-.53A5.52,5.52,0,0,0,23,3a2,2,0,0,0-.54,0,1.32,1.32,0,0,0-.45.15l-.12.08-.06,0a.59.59,0,0,0-.15.16,1.66,1.66,0,0,0-.28.64,4.33,4.33,0,0,0-.14.92,7.22,7.22,0,0,0,0,1,15.81,15.81,0,0,0,.3,2.21c.16.75.35,1.5.58,2.25.11.37.23.75.36,1.12s.26.75.39,1.09v0a1.13,1.13,0,0,1-.81,1.48,1.4,1.4,0,0,1-.67,0c.07.16.15.32.23.49a1.17,1.17,0,0,0,2.15-.89v0c-.12-.34-.25-.72-.36-1.09s-.21-.75-.31-1.12q-.3-1.12-.51-2.25a17.29,17.29,0,0,1-.27-2.21,9,9,0,0,1,0-1,5.12,5.12,0,0,1,.12-.92,2.08,2.08,0,0,1,.25-.64.56.56,0,0,1,.13-.16l.06,0L23,4.24a1,1,0,0,1,.39-.15,1.61,1.61,0,0,1,.48,0,4.61,4.61,0,0,1,1.43.59,7.55,7.55,0,0,1,.77.53l.37.3.18.16.08.07s.06.06,0,0a2.36,2.36,0,0,0,3.83-2.36Z"/><path class="cls-3" d="M.19,24.87C1.5,35.77,9.13,52.88,16,52.22s10.22-18.83,8.91-29.74S18,12.07,11.22,12.73-1.11,14,.19,24.87Z"/><path class="cls-4" d="M24.86,22.48C23.55,11.57,18,12.07,11.22,12.73l-1.51.15c-1.35,1.72-2.15,4.45-2.15,8.81C7.56,32,12,47.94,17.9,51.51,23.4,48,26,32.29,24.86,22.48Z"/><path class="cls-3" d="M42.46,24.87c-1.3,10.9-8.94,28-15.75,27.35S16.49,33.39,17.8,22.48s6.83-10.41,13.64-9.75S43.77,14,42.46,24.87Z"/><path class="cls-4" d="M35.76,13.28c3.59,1.16,5.78,3.83,4.91,11.14C39.38,35.15,32,51.88,25.25,51.79a4,4,0,0,0,1.46.43c6.81.66,14.45-16.45,15.75-27.35C43.48,16.4,40.38,14.16,35.76,13.28Z"/><path class="cls-3" d="M34.06,22.47C34.06,34.14,28.36,53,21.33,53S8.6,34.14,8.6,22.47s5.7-11.71,12.73-11.71S34.06,10.8,34.06,22.47Z"/><path class="cls-4" d="M30.67,12.47c1,1.73,1.59,4.27,1.59,8C32.26,32.12,26.56,51,19.53,51a5.34,5.34,0,0,1-3.47-1.53c1.61,2.2,3.39,3.55,5.27,3.55,7,0,12.73-18.89,12.73-30.56C34.06,16.93,32.77,14,30.67,12.47Z"/><path class="cls-5" d="M16.35,23.14c0,5-1.17,10.64-2.62,10.64s-2.62-5.66-2.62-10.64,1.17-7.4,2.62-7.4S16.35,18.16,16.35,23.14Z"/></g></g></svg>