<svg id="Layer_1" data-name="Layer 1" xmlns="http://www.w3.org/2000/svg" viewBox="0 0 51.02 59.96"><defs><style>.cls-1{fill:#39b54a;}.cls-2{fill:#2c8c39;}.cls-3{fill:#ed1c24;}.cls-4{fill:#cc181f;}.cls-5{fill:#ff545b;}</style></defs><title>vector</title><path class="cls-1" d="M25.77,18.62c-.19-.4-.36-.77-.53-1.15s-.33-.77-.49-1.16c-.31-.77-.6-1.56-.85-2.37a19.91,19.91,0,0,1-.64-2.53c-.07-.44-.14-.89-.17-1.36a8.16,8.16,0,0,1,0-1.48,5.74,5.74,0,0,1,.39-1.67A4.71,4.71,0,0,1,24,6l.33-.42.33-.34a5.06,5.06,0,0,1,1.68-1,5.62,5.62,0,0,1,1.9-.32,8.31,8.31,0,0,1,3.18.74,12.37,12.37,0,0,1,1.31.67l.62.38.31.21.16.11.18.14a2.35,2.35,0,1,1-3.08,3.56l-.05-.05-.08-.07-.17-.15c-.12-.11-.25-.21-.38-.31s-.51-.37-.77-.53A4.61,4.61,0,0,0,28,8a2,2,0,0,0-.47,0,1,1,0,0,0-.4.15L27,8.22l-.06,0a1.43,1.43,0,0,0-.13.16,2.15,2.15,0,0,0-.25.65,5.88,5.88,0,0,0-.12.92c0,.33,0,.68,0,1a19.13,19.13,0,0,0,.27,2.2q.21,1.13.51,2.25c.1.37.2.75.32,1.12s.23.75.35,1.09v0a1.17,1.17,0,0,1-2.15.9Z"/><path class="cls-2" d="M34.7,7.36a2.21,2.21,0,0,1-.57,1,2.92,2.92,0,0,1-3.76.24l-.05,0-.09-.08L30,8.32,29.61,8c-.29-.19-.58-.37-.88-.53a5.19,5.19,0,0,0-1.61-.58,2,2,0,0,0-.53,0,1.19,1.19,0,0,0-.45.15L26,7.1l-.06,0a.79.79,0,0,0-.15.16,1.89,1.89,0,0,0-.28.65,4.81,4.81,0,0,0-.14.92,9,9,0,0,0,0,1,15.73,15.73,0,0,0,.31,2.2,23.17,23.17,0,0,0,.57,2.25c.11.38.23.75.36,1.12s.26.75.4,1.09v0a1.14,1.14,0,0,1-.82,1.48,1.39,1.39,0,0,1-.67,0l.23.5a1.17,1.17,0,0,0,2.15-.9v0c-.12-.34-.24-.72-.35-1.09s-.22-.75-.32-1.12q-.3-1.12-.51-2.25a19.13,19.13,0,0,1-.27-2.2c0-.36,0-.71,0-1a5.88,5.88,0,0,1,.12-.92,2.15,2.15,0,0,1,.25-.65A1.43,1.43,0,0,1,27,8.26l.06,0,.11-.08a1,1,0,0,1,.4-.15A2,2,0,0,1,28,8a4.61,4.61,0,0,1,1.43.59c.26.16.52.34.77.53s.26.2.38.31l.17.15.08.07.05.05A2.35,2.35,0,0,0,34.7,7.36Z"/><path class="cls-3" d="M4.33,28.77c1.3,10.91,8.94,28,15.75,27.36S30.3,37.29,29,26.38,22.16,16,15.35,16.63,3,17.86,4.33,28.77Z"/><path class="cls-4" d="M29,26.38c-1.3-10.9-6.83-10.4-13.64-9.75l-1.5.16c-1.36,1.71-2.15,4.45-2.15,8.8C11.7,35.9,16.15,51.84,22,55.42,27.53,51.87,30.17,36.19,29,26.38Z"/><path class="cls-3" d="M46.6,28.77c-1.31,10.91-8.94,28-15.76,27.36S20.62,37.29,21.93,26.38,28.76,16,35.57,16.63,47.9,17.86,46.6,28.77Z"/><path class="cls-4" d="M39.89,17.18c3.59,1.16,5.79,3.83,4.91,11.14C43.52,39.05,36.1,55.79,29.38,55.7a4.3,4.3,0,0,0,1.46.43c6.82.66,14.45-16.45,15.76-27.36C47.61,20.31,44.51,18.07,39.89,17.18Z"/><path class="cls-3" d="M38.19,26.37c0,11.67-5.7,30.56-12.73,30.56S12.73,38,12.73,26.37s5.7-11.71,12.73-11.71S38.19,14.7,38.19,26.37Z"/><path class="cls-4" d="M34.8,16.37c1,1.74,1.59,4.27,1.59,8,0,11.67-5.7,30.56-12.73,30.56a5.25,5.25,0,0,1-3.46-1.53c1.6,2.2,3.38,3.55,5.26,3.55,7,0,12.73-18.89,12.73-30.56C38.19,20.83,36.91,17.91,34.8,16.37Z"/><path class="cls-5" d="M20.48,27c0,5-1.17,10.64-2.62,10.64S15.24,32,15.24,27s1.17-7.4,2.62-7.4S20.48,22.06,20.48,27Z"/></svg>