<svg id="Layer_1" data-name="Layer 1" xmlns="http://www.w3.org/2000/svg" viewBox="0 0 50.45 58.24"><defs><style>.cls-1{fill:#39b54a;}.cls-2{fill:#2c8c39;}.cls-3{fill:#74d141;}.cls-4{fill:#2dad35;}.cls-5{fill:#a5e693;}</style></defs><title>vector</title><path class="cls-1" d="M17.82,20.88c-.4-.19-.76-.38-1.13-.57l-1.1-.61c-.72-.42-1.43-.86-2.13-1.34a23.3,23.3,0,0,1-2.06-1.6c-.33-.3-.66-.62-1-1a9.24,9.24,0,0,1-.9-1.17,5.77,5.77,0,0,1-.72-1.56,4.36,4.36,0,0,1-.17-1,4.86,4.86,0,0,1,0-.54c0-.15,0-.31,0-.46a4.82,4.82,0,0,1,.68-1.86,5.39,5.39,0,0,1,1.3-1.42,8.31,8.31,0,0,1,3-1.38,12.19,12.19,0,0,1,1.44-.28c.24,0,.48-.06.73-.08l.37,0h.42a2.36,2.36,0,0,1-.23,4.71s0,0-.07,0h-.11l-.23,0h-.48c-.32,0-.64,0-.94.06a4.44,4.44,0,0,0-1.48.42,1.27,1.27,0,0,0-.39.28.85.85,0,0,0-.22.36s0,.08,0,.13a.14.14,0,0,1,0,.06,1.28,1.28,0,0,0,0,.21,2.23,2.23,0,0,0,.21.66,4.5,4.5,0,0,0,.47.8,9.58,9.58,0,0,0,.64.82,17.89,17.89,0,0,0,1.57,1.57c.57.5,1.17,1,1.79,1.46.31.23.62.46.94.68s.65.45.95.65l0,0a1.16,1.16,0,0,1-1.14,2Z"/><path class="cls-2" d="M17.91,6.51a2.29,2.29,0,0,1,.16,1.15,2.92,2.92,0,0,1-2.81,2.5s0,0-.07,0h-.37l-.52,0a8.61,8.61,0,0,0-1,.12,5.39,5.39,0,0,0-1.62.53,1.67,1.67,0,0,0-.44.32,1.17,1.17,0,0,0-.27.39.78.78,0,0,1,0,.14.25.25,0,0,1,0,.07.68.68,0,0,0,0,.22,1.91,1.91,0,0,0,.18.68,4,4,0,0,0,.46.81,9.15,9.15,0,0,0,.64.82,16.76,16.76,0,0,0,1.6,1.54c.58.5,1.2,1,1.84,1.42.32.23.64.45,1,.66s.67.43,1,.62h0a1.13,1.13,0,0,1,.27,1.67,1.53,1.53,0,0,1-.5.45l.49.24a1.16,1.16,0,0,0,1.14-2l0,0c-.3-.2-.64-.42-.95-.65s-.63-.45-.94-.68c-.62-.47-1.22-1-1.79-1.46a17.89,17.89,0,0,1-1.57-1.57,9.58,9.58,0,0,1-.64-.82,4.5,4.5,0,0,1-.47-.8,2.23,2.23,0,0,1-.21-.66,1.28,1.28,0,0,1,0-.21.14.14,0,0,0,0-.06s0-.09,0-.13a.85.85,0,0,1,.22-.36,1.27,1.27,0,0,1,.39-.28,4.44,4.44,0,0,1,1.48-.42c.3,0,.62-.05.94-.06h.48l.23,0h.11s.08,0,.07,0a2.36,2.36,0,0,0,1.56-4.22Z"/><path class="cls-3" d="M7.19,42.1c7.75,7.78,24.31,16.54,29.27,11.83S32.89,32.79,25.14,25s-11.79-4-16.75.74S-.56,34.32,7.19,42.1Z"/><path class="cls-4" d="M25.14,25c-7.75-7.78-11.79-4-16.75.74l-1.09,1c0,2.19,1,4.83,3.73,8.26C17.39,43.17,30.72,53,37.56,52.16,39.7,46,32.11,32,25.14,25Z"/><path class="cls-3" d="M40.47,16c5.7,9.39,10.24,27.57,4.47,31.25S25.28,38.76,19.58,29.37s-1-12.41,4.73-16.09S34.78,6.65,40.47,16Z"/><path class="cls-4" d="M28.05,11.05c3.54-1.3,6.91-.56,10.73,5.74,5.6,9.24,10.09,27,4.74,31.06a4.18,4.18,0,0,0,1.42-.56c5.77-3.68,1.23-21.86-4.47-31.25C36.05,8.75,32.23,8.9,28.05,11.05Z"/><path class="cls-3" d="M32.38,19.33c7.19,9.19,14.35,27.57,8.81,31.91S19.53,44.22,12.33,35,9.6,22.29,15.13,18,25.18,10.14,32.38,19.33Z"/><path class="cls-4" d="M23.55,13.55c1.86.74,3.88,2.38,6.17,5.3C36.91,28,44.07,46.42,38.53,50.76a5.27,5.27,0,0,1-3.67.93c2.62.74,4.85.71,6.33-.45,5.54-4.34-1.62-22.72-8.81-31.91C29,15,26.15,13.46,23.55,13.55Z"/><path class="cls-5" d="M18.85,30.78c3.07,3.92,5.63,9.1,4.49,10S17.79,37.93,14.72,34s-3.64-6.55-2.5-7.44S15.78,26.86,18.85,30.78Z"/></svg>