<svg id="Layer_1" data-name="Layer 1" xmlns="http://www.w3.org/2000/svg" viewBox="0 0 53.33 54.54"><defs><style>.cls-1{fill:#39b54a;}.cls-2{fill:#2c8c39;}.cls-3{fill:#f7931e;}.cls-4{fill:#ed5f2b;}.cls-5{fill:#fcc686;}</style></defs><title>vector</title><path class="cls-1" d="M33.26,17.43c.06-.44.13-.84.2-1.25s.16-.82.24-1.23c.18-.81.39-1.63.63-2.44a22.77,22.77,0,0,1,.9-2.45,12.76,12.76,0,0,1,.62-1.22,8.32,8.32,0,0,1,.84-1.22A5.68,5.68,0,0,1,38,6.46,4.66,4.66,0,0,1,38.84,6l.51-.17.46-.09a5.06,5.06,0,0,1,2,.08,5.21,5.21,0,0,1,1.75.81A8.09,8.09,0,0,1,45.74,9a13.89,13.89,0,0,1,.72,1.29l.3.67c0,.11.09.22.13.34l.07.18.07.22a2.36,2.36,0,1,1-4.55,1.22s0,0,0-.07l0-.11,0-.22c0-.16-.09-.31-.14-.46-.1-.31-.22-.6-.34-.88a4.57,4.57,0,0,0-.85-1.28,1.66,1.66,0,0,0-.38-.29.9.9,0,0,0-.42-.1h-.2a1.36,1.36,0,0,0-.2.06,2.06,2.06,0,0,0-.57.4,5.36,5.36,0,0,0-.62.69c-.2.26-.39.56-.58.86a16,16,0,0,0-1,2c-.31.69-.59,1.41-.85,2.14-.13.37-.25.74-.37,1.11s-.22.75-.32,1.1v0a1.16,1.16,0,0,1-2.27-.47Z"/><path class="cls-2" d="M47,13.14a2.25,2.25,0,0,1-1,.5,2.92,2.92,0,0,1-3.24-1.91s0-.05,0-.08l0-.11-.08-.24c-.05-.16-.11-.32-.17-.48A10,10,0,0,0,42,9.89,5.49,5.49,0,0,0,41,8.5a1.53,1.53,0,0,0-.43-.32A1.24,1.24,0,0,0,40.07,8h-.22a.63.63,0,0,0-.21.05,1.84,1.84,0,0,0-.6.37,4.75,4.75,0,0,0-.63.69,6.8,6.8,0,0,0-.58.86,14.76,14.76,0,0,0-1,2c-.29.71-.56,1.44-.79,2.19-.12.37-.23.75-.33,1.12s-.21.77-.29,1.13v0a1.13,1.13,0,0,1-1.5.77,1.37,1.37,0,0,1-.58-.35c0,.18-.06.36-.08.54a1.16,1.16,0,0,0,2.27.47v0c.1-.35.21-.74.32-1.1s.24-.74.37-1.11c.26-.73.54-1.45.85-2.14a16,16,0,0,1,1-2c.19-.3.38-.6.58-.86a5.36,5.36,0,0,1,.62-.69,2.06,2.06,0,0,1,.57-.4,1.36,1.36,0,0,1,.2-.06h.2a.9.9,0,0,1,.42.1,1.66,1.66,0,0,1,.38.29,4.57,4.57,0,0,1,.85,1.28c.12.28.24.57.34.88,0,.15.1.3.14.46l0,.22,0,.11s0,.08,0,.07a2.36,2.36,0,0,0,4.49.2Z"/><path class="cls-3" d="M9.81,13.78C4.76,23.54,1.46,42,7.47,45.26s19-9.84,24.09-19.59.19-12.45-5.81-15.73S14.86,4,9.81,13.78Z"/><path class="cls-4" d="M31.56,25.67c5-9.76.19-12.45-5.81-15.73l-1.33-.72c-2.09.66-4.28,2.47-6.73,6.07C11.9,23.82,6.62,39.51,9.49,45.77,16,45.93,27,34.44,31.56,25.67Z"/><path class="cls-3" d="M44.78,37.53c-7.21,8.29-23.14,18.15-28.4,13.78S18.51,30,25.71,21.7s11.5-4.77,16.77-.4S52,29.24,44.78,37.53Z"/><path class="cls-4" d="M45.74,24.18c2.32,3,2.64,6.41-2.2,12C36.45,44.3,20.92,54,15.4,50.13a4,4,0,0,0,1,1.18c5.26,4.37,21.19-5.49,28.4-13.78C50.37,31.1,49.07,27.51,45.74,24.18Z"/><path class="cls-3" d="M39.17,30.82C32.61,40.48,17.29,52.9,11.47,49s.08-22.77,6.64-32.43S29.41,10,35.22,14,45.73,21.17,39.17,30.82Z"/><path class="cls-4" d="M42,20.65c-.14,2-1.08,4.42-3.17,7.49-6.56,9.66-21.88,22.08-27.7,18.13a5.32,5.32,0,0,1-2-3.21c.09,2.72.81,4.83,2.36,5.89,5.82,3.95,21.14-8.47,27.7-18.13C42.28,26.24,42.86,23.1,42,20.65Z"/><path class="cls-5" d="M24.14,21.43c-2.79,4.12-6.94,8.14-8.14,7.33s1-6.15,3.81-10.27,5.13-5.47,6.33-4.66S26.94,17.31,24.14,21.43Z"/></svg>