<svg xmlns="http://www.w3.org/2000/svg" viewBox="0 0 44.37 46.71"><defs><style>.cls-1{fill:#39b54a;}.cls-2{fill:#2c8c39;}.cls-3{fill:#f7931e;}.cls-4{fill:#ed5f2b;}.cls-5{fill:#fcc686;}</style></defs><title>pepper_yellow</title><g id="Layer_2" data-name="Layer 2"><g id="Layer_1-2" data-name="Layer 1"><path class="cls-1" d="M29,11.76c.06-.44.13-.84.2-1.26s.16-.81.25-1.22c.17-.82.38-1.63.62-2.45A22.62,22.62,0,0,1,31,4.39a11.81,11.81,0,0,1,.62-1.23,8.89,8.89,0,0,1,.84-1.22A6.2,6.2,0,0,1,33.71.78,5.31,5.31,0,0,1,34.6.32l.51-.16.46-.1a4.88,4.88,0,0,1,2,.09,5.11,5.11,0,0,1,1.75.8,8.42,8.42,0,0,1,2.22,2.4,13.53,13.53,0,0,1,.71,1.29l.3.66c0,.11.09.23.13.35l.07.18c0,.07,0,.11.07.22a2.35,2.35,0,1,1-4.55,1.21s0,0,0-.07l0-.1-.06-.23c0-.15-.09-.31-.14-.46-.1-.3-.22-.6-.34-.87a4.64,4.64,0,0,0-.85-1.29A1.35,1.35,0,0,0,36.44,4,1,1,0,0,0,36,3.85h-.2a.71.71,0,0,0-.2.06,2,2,0,0,0-.57.39,7.15,7.15,0,0,0-.62.69c-.2.27-.39.56-.58.86a17.5,17.5,0,0,0-1,2c-.31.7-.59,1.41-.85,2.15-.13.36-.25.73-.36,1.1s-.23.75-.33,1.1v0A1.16,1.16,0,0,1,29,11.76Z"/><path class="cls-2" d="M42.73,7.46a2.25,2.25,0,0,1-1,.5,2.9,2.9,0,0,1-3.24-1.91s0,0,0-.07l0-.11-.07-.24-.18-.49a8.79,8.79,0,0,0-.43-.93,5.49,5.49,0,0,0-1-1.39,2.06,2.06,0,0,0-.43-.32,1.24,1.24,0,0,0-.46-.13h-.15a.08.08,0,0,1-.07,0,.63.63,0,0,0-.21.05,1.9,1.9,0,0,0-.6.38,4.65,4.65,0,0,0-.63.68,7.6,7.6,0,0,0-.58.86,14.89,14.89,0,0,0-1,2c-.29.7-.56,1.43-.79,2.18-.12.37-.23.75-.33,1.13s-.21.77-.29,1.13v0a1.14,1.14,0,0,1-1.51.76,1.53,1.53,0,0,1-.58-.34c0,.17-.06.35-.08.54a1.16,1.16,0,0,0,2.27.46v0c.1-.35.21-.73.33-1.1s.23-.74.36-1.1c.26-.74.54-1.45.85-2.15a17.5,17.5,0,0,1,1-2c.19-.3.38-.59.58-.86a7.15,7.15,0,0,1,.62-.69,2,2,0,0,1,.57-.39.71.71,0,0,1,.2-.06H36a1,1,0,0,1,.42.11,1.35,1.35,0,0,1,.38.28,4.64,4.64,0,0,1,.85,1.29c.12.27.24.57.34.87.05.15.1.31.14.46l.06.23,0,.1s0,.08,0,.07a2.35,2.35,0,0,0,2.88,1.67A2.32,2.32,0,0,0,42.73,7.46Z"/><path class="cls-3" d="M5.57,8.11C.52,17.86-2.77,36.31,3.23,39.59s19-9.84,24.09-19.6.19-12.45-5.81-15.73S10.62-1.65,5.57,8.11Z"/><path class="cls-4" d="M27.32,20c5-9.75.19-12.45-5.81-15.73l-1.33-.72C18.09,4.2,15.9,6,13.46,9.62,7.66,18.15,2.38,33.84,5.25,40.1,11.78,40.25,22.78,28.76,27.32,20Z"/><path class="cls-3" d="M40.54,31.86C33.33,40.14,17.4,50,12.14,45.64S14.27,24.31,21.47,16s11.5-4.77,16.77-.4S47.75,23.57,40.54,31.86Z"/><path class="cls-4" d="M41.5,18.5c2.32,3,2.64,6.42-2.2,12-7.09,8.15-22.62,17.83-28.13,14a4.09,4.09,0,0,0,1,1.18c5.26,4.37,21.19-5.5,28.4-13.78C46.13,25.42,44.83,21.83,41.5,18.5Z"/><path class="cls-3" d="M34.93,25.15C28.37,34.8,13.05,47.22,7.23,43.27s.08-22.77,6.64-32.43S25.17,4.36,31,8.31,41.49,15.49,34.93,25.15Z"/><path class="cls-4" d="M37.75,15c-.14,2-1.08,4.42-3.17,7.49C28,32.12,12.7,44.54,6.88,40.59a5.26,5.26,0,0,1-2-3.21c.09,2.72.81,4.84,2.36,5.89,5.82,3.95,21.14-8.47,27.7-18.12C38.05,20.57,38.62,17.43,37.75,15Z"/><path class="cls-5" d="M19.9,15.76c-2.79,4.12-6.94,8.13-8.14,7.32s1-6.15,3.81-10.27S20.7,7.35,21.9,8.16,22.7,11.64,19.9,15.76Z"/></g></g></svg>