<svg xmlns="http://www.w3.org/2000/svg" viewBox="0 0 56.33 37.38"><defs><style>.cls-1{fill:#a67c52;}.cls-2{fill:#826240;}.cls-3{fill:#785a3b;}</style></defs><title>potato</title><g id="Layer_2" data-name="Layer 2"><g id="Layer_1-2" data-name="Layer 1"><ellipse class="cls-1" cx="28.17" cy="18.69" rx="28.17" ry="18.69"/><path class="cls-2" d="M50.22,6.49a14.85,14.85,0,0,1,2.36,8c0,10.32-8.68,18.69-28.17,18.69-10.8,0-17.81-2.06-22.14-5.39,3.41,5.71,11.1,9.57,25.9,9.57,19.48,0,28.16-8.37,28.16-18.69A15.63,15.63,0,0,0,50.22,6.49Z"/><path class="cls-3" d="M15.68,9.41a2.28,2.28,0,0,1,.66-1.62,1.75,1.75,0,0,0-1.59,1.62A1.73,1.73,0,0,0,16.34,11,2.26,2.26,0,0,1,15.68,9.41Z"/><path class="cls-3" d="M7.37,17.07A2.22,2.22,0,0,1,8,15.46a1.75,1.75,0,0,0-1.6,1.61A1.75,1.75,0,0,0,8,18.69,2.22,2.22,0,0,1,7.37,17.07Z"/><path class="cls-3" d="M12,25.19a2.26,2.26,0,0,1,.66-1.61,1.62,1.62,0,0,0,0,3.23A2.28,2.28,0,0,1,12,25.19Z"/><path class="cls-3" d="M25.77,11a2.26,2.26,0,0,1,.66-1.61A1.73,1.73,0,0,0,24.84,11a1.75,1.75,0,0,0,1.59,1.62A2.28,2.28,0,0,1,25.77,11Z"/><path class="cls-3" d="M25,30.82a2.22,2.22,0,0,1,.66-1.61,1.62,1.62,0,0,0,0,3.23A2.24,2.24,0,0,1,25,30.82Z"/><path class="cls-3" d="M20.07,20.3a2.22,2.22,0,0,1,.66-1.61,1.73,1.73,0,0,0-1.6,1.61,1.75,1.75,0,0,0,1.6,1.62A2.24,2.24,0,0,1,20.07,20.3Z"/><path class="cls-3" d="M34.06,15.46a2.26,2.26,0,0,1,.66-1.61,1.72,1.72,0,0,0-1.59,1.61,1.72,1.72,0,0,0,1.59,1.61A2.24,2.24,0,0,1,34.06,15.46Z"/><path class="cls-3" d="M35.65,25.19a2.26,2.26,0,0,1,.66-1.61,1.62,1.62,0,0,0,0,3.23A2.28,2.28,0,0,1,35.65,25.19Z"/><path class="cls-3" d="M42.74,7.79a2.22,2.22,0,0,1,.66-1.61,1.74,1.74,0,0,0-1.6,1.61,1.75,1.75,0,0,0,1.6,1.62A2.24,2.24,0,0,1,42.74,7.79Z"/><path class="cls-3" d="M46.74,20.3a2.26,2.26,0,0,1,.66-1.61,1.73,1.73,0,0,0-1.59,1.61,1.75,1.75,0,0,0,1.59,1.62A2.28,2.28,0,0,1,46.74,20.3Z"/></g></g></svg>