<svg id="Layer_1" data-name="Layer 1" xmlns="http://www.w3.org/2000/svg" viewBox="0 0 60 41.66"><defs><style>.cls-1{fill:#a67c52;}.cls-2{fill:#826240;}.cls-3{fill:#785a3b;}</style></defs><title>vector</title><ellipse class="cls-1" cx="30.09" cy="21.01" rx="28.17" ry="18.69"/><path class="cls-2" d="M52.14,8.81a14.76,14.76,0,0,1,2.36,8c0,10.32-8.68,18.69-28.17,18.69-10.8,0-17.81-2.06-22.14-5.39,3.42,5.71,11.1,9.57,25.9,9.57,19.48,0,28.16-8.37,28.16-18.69A15.64,15.64,0,0,0,52.14,8.81Z"/><path class="cls-3" d="M17.61,11.73a2.22,2.22,0,0,1,.66-1.61,1.73,1.73,0,0,0-1.6,1.61,1.73,1.73,0,0,0,1.6,1.61A2.22,2.22,0,0,1,17.61,11.73Z"/><path class="cls-3" d="M9.29,19.4A2.28,2.28,0,0,1,10,17.78,1.75,1.75,0,0,0,8.36,19.4,1.73,1.73,0,0,0,10,21,2.26,2.26,0,0,1,9.29,19.4Z"/><path class="cls-3" d="M14,27.51a2.22,2.22,0,0,1,.66-1.61,1.62,1.62,0,0,0,0,3.23A2.24,2.24,0,0,1,14,27.51Z"/><path class="cls-3" d="M27.7,13.34a2.22,2.22,0,0,1,.66-1.61,1.73,1.73,0,0,0-1.6,1.61A1.75,1.75,0,0,0,28.36,15,2.24,2.24,0,0,1,27.7,13.34Z"/><path class="cls-3" d="M26.9,33.14a2.26,2.26,0,0,1,.66-1.61,1.62,1.62,0,0,0,0,3.23A2.28,2.28,0,0,1,26.9,33.14Z"/><path class="cls-3" d="M22,22.62A2.26,2.26,0,0,1,22.65,21a1.62,1.62,0,0,0,0,3.23A2.28,2.28,0,0,1,22,22.62Z"/><path class="cls-3" d="M36,17.78a2.26,2.26,0,0,1,.66-1.61,1.73,1.73,0,0,0-1.59,1.61,1.75,1.75,0,0,0,1.59,1.62A2.28,2.28,0,0,1,36,17.78Z"/><path class="cls-3" d="M37.58,27.51a2.22,2.22,0,0,1,.66-1.61,1.62,1.62,0,0,0,0,3.23A2.24,2.24,0,0,1,37.58,27.51Z"/><path class="cls-3" d="M44.66,10.12a2.28,2.28,0,0,1,.66-1.62,1.75,1.75,0,0,0-1.59,1.62,1.74,1.74,0,0,0,1.59,1.61A2.26,2.26,0,0,1,44.66,10.12Z"/><path class="cls-3" d="M48.67,22.62A2.22,2.22,0,0,1,49.33,21a1.62,1.62,0,0,0,0,3.23A2.24,2.24,0,0,1,48.67,22.62Z"/></svg>