<svg xmlns="http://www.w3.org/2000/svg" viewBox="0 0 47.23 52.76"><defs><style>.cls-1{fill:#d73a22;}.cls-2{fill:#b8321d;}.cls-3{fill:#e66f5c;}.cls-4{fill:#58a026;}</style></defs><title>tomato</title><g id="Layer_2" data-name="Layer 2"><g id="Layer_1-2" data-name="Layer 1"><ellipse class="cls-1" cx="23.6" cy="30.28" rx="22.41" ry="23.65" transform="translate(-11 46.93) rotate(-77.77)"/><path class="cls-2" d="M43.72,19a21.38,21.38,0,0,1,.33,10.38C41.43,41.47,29,49,16.19,46.26A24.17,24.17,0,0,1,.82,35.65a23.79,23.79,0,0,0,18,16.53C31.61,55,44.08,47.39,46.71,35.29A21.74,21.74,0,0,0,43.72,19Z"/><path class="cls-3" d="M18.54,15.87c2.5,2.43,1.27,7.76-2.75,11.9S6.47,33.28,4,30.85,2.7,23.09,6.72,19,16,13.43,18.54,15.87Z"/><path class="cls-4" d="M11.87,20.63a6.23,6.23,0,0,1,2.29-3.87,11.61,11.61,0,0,1,4.11-2.06l1.11-.3,1.13-.25c.38-.05.76-.09,1.15-.12a11.11,11.11,0,0,1,1.15,0,10.6,10.6,0,0,1,1.13.16,7.3,7.3,0,0,1,1.12.27,8.33,8.33,0,0,1,2.1.92l0,.18c-.77.13-1.5.15-2.22.21l-.54,0-.53,0c-.35,0-.7,0-1,.06s-.7,0-1.05,0-.69,0-1,0-.69,0-1,0-.69.08-1,.12a12.71,12.71,0,0,0-2,.51,8.85,8.85,0,0,0-1,.38c-.32.13-.61.31-.92.47a5.9,5.9,0,0,0-2.65,3.15Z"/><path class="cls-4" d="M40.76,22.31a6.23,6.23,0,0,0-2-4,11.7,11.7,0,0,0-4-2.34c-.36-.12-.72-.27-1.09-.38l-1.11-.32c-.38-.08-.75-.15-1.14-.21s-.76,0-1.14,0a10.92,10.92,0,0,0-1.15.08,7.44,7.44,0,0,0-1.13.2,9,9,0,0,0-2.16.76l0,.19c.76.18,1.48.25,2.2.36l.53.07.53.08c.35.05.7.06,1.05.13s.69.09,1,.12.69.07,1,.09.69.08,1,.12a9.3,9.3,0,0,1,1,.19,13.36,13.36,0,0,1,2,.65c.33.12.63.3.94.44s.59.36.89.54a5.94,5.94,0,0,1,2.43,3.32Z"/><path class="cls-4" d="M33.35,25.73a4.6,4.6,0,0,0,.51-3.26,8.36,8.36,0,0,0-1.36-3.08c-.16-.23-.31-.47-.48-.7s-.35-.45-.53-.66-.38-.42-.58-.61-.44-.35-.67-.52a6.46,6.46,0,0,0-.71-.44,4.84,4.84,0,0,0-.76-.37,6.42,6.42,0,0,0-1.62-.47l-.06.12a15.86,15.86,0,0,0,1.16,1.16l.29.27.28.27c.18.18.39.34.56.53l.57.51c.19.18.38.34.58.5l.57.51c.19.17.35.37.53.56a10.76,10.76,0,0,1,.9,1.23,7.19,7.19,0,0,1,.37.67,7.37,7.37,0,0,1,.3.7,4.33,4.33,0,0,1,0,3Z"/><path class="cls-4" d="M18.86,22.76a4.35,4.35,0,0,1,.49-3.08,8.15,8.15,0,0,1,2.12-2.37c.22-.16.42-.33.64-.48s.44-.31.67-.45.46-.26.7-.38l.75-.27a7.2,7.2,0,0,1,.77-.19,6.83,6.83,0,0,1,.79-.11,6.53,6.53,0,0,1,1.59.05l0,.13c-.46.28-.93.48-1.38.7l-.33.16-.34.16c-.22.11-.45.2-.66.31l-.66.3-.67.28-.66.29c-.22.1-.42.23-.64.35A8.79,8.79,0,0,0,20.9,19c-.2.15-.35.33-.53.49s-.31.36-.47.55a4.11,4.11,0,0,0-.91,2.7Z"/><path class="cls-4" d="M16.85,12a4.36,4.36,0,0,1,2.92-1.09,7.93,7.93,0,0,1,3.11.67c.24.11.5.2.74.32s.48.23.71.36.46.28.68.43.41.34.61.51a7.41,7.41,0,0,1,.54.58,4.77,4.77,0,0,1,.48.63,6.15,6.15,0,0,1,.75,1.41l-.11.08c-.47-.26-.87-.57-1.29-.85l-.3-.22-.31-.21c-.2-.13-.38-.29-.59-.42l-.59-.43-.57-.44-.58-.43a6.76,6.76,0,0,0-.61-.38,8.24,8.24,0,0,0-1.32-.6,5.39,5.39,0,0,0-.68-.22c-.23-.07-.47-.09-.71-.14a4.14,4.14,0,0,0-2.8.54Z"/><path class="cls-4" d="M30.85,16.24c-.24,1.09-2.23,1.59-4.45,1.11s-3.82-1.76-3.59-2.86S25,12.9,27.26,13.38,31.09,15.14,30.85,16.24Z"/><path class="cls-4" d="M25.78,16.59a12.16,12.16,0,0,1,.28-3.85,15,15,0,0,1,1.33-3.66A12.9,12.9,0,0,1,29.7,5.91a25.57,25.57,0,0,1,3-2.51,19.79,19.79,0,0,1,3.36-1.94A17.87,17.87,0,0,1,39.74.3a15.28,15.28,0,0,1,7.49.37l-.06.27a15.86,15.86,0,0,0-7.07.72,16.41,16.41,0,0,0-3.18,1.47,16.66,16.66,0,0,0-2.81,2,16.08,16.08,0,0,0-2.3,2.58c-.67.92-1.33,1.84-2,2.78s-1.29,1.92-1.91,2.94-1.2,2.07-1.85,3.18Z"/></g></g></svg>