<svg id="Layer_1" data-name="Layer 1" xmlns="http://www.w3.org/2000/svg" viewBox="0 0 53.33 61"><defs><style>.cls-1{fill:#d73a22;}.cls-2{fill:#b8321d;}.cls-3{fill:#e66f5c;}.cls-4{fill:#58a026;}</style></defs><title>vector</title><ellipse class="cls-1" cx="26.4" cy="35.8" rx="22.41" ry="23.65" transform="translate(-14.18 54.01) rotate(-77.77)"/><path class="cls-2" d="M46.52,24.5a21.42,21.42,0,0,1,.34,10.39C44.23,47,31.76,54.54,19,51.77A24.2,24.2,0,0,1,3.63,41.17a23.81,23.81,0,0,0,18,16.53c12.77,2.76,25.24-4.8,27.86-16.89A21.67,21.67,0,0,0,46.52,24.5Z"/><path class="cls-3" d="M21.35,21.38c2.5,2.44,1.27,7.76-2.76,11.9S9.28,38.8,6.77,36.36,5.5,28.6,9.53,24.46,18.84,19,21.35,21.38Z"/><path class="cls-4" d="M14.67,26.14A6.27,6.27,0,0,1,17,22.27a11.67,11.67,0,0,1,4.11-2.05c.37-.1.74-.22,1.12-.31s.75-.17,1.13-.24.76-.1,1.14-.13.77,0,1.15,0a11.16,11.16,0,0,1,1.14.16,7.18,7.18,0,0,1,1.11.27,8.78,8.78,0,0,1,2.11.92l0,.18c-.78.13-1.5.15-2.22.21l-.54,0-.53,0c-.36,0-.71,0-1.06.06s-.69,0-1,0-.69,0-1,0-.7,0-1.05,0-.69.08-1,.12a13.57,13.57,0,0,0-2,.51c-.34.1-.64.25-1,.38s-.61.32-.92.47a6,6,0,0,0-2.66,3.15Z"/><path class="cls-4" d="M43.57,27.82a6.24,6.24,0,0,0-2-4,11.6,11.6,0,0,0-4-2.34c-.36-.12-.72-.26-1.09-.37s-.73-.23-1.11-.33-.75-.15-1.13-.2a8.85,8.85,0,0,0-1.15,0,8.74,8.74,0,0,0-1.14.08,6.2,6.2,0,0,0-1.13.19,8.65,8.65,0,0,0-2.17.77l0,.18c.76.19,1.48.25,2.2.36l.54.07.52.08c.35.05.71.07,1,.13s.69.09,1,.12.69.07,1,.1.69.07,1,.11.68.13,1,.19a13.49,13.49,0,0,1,2,.65c.33.12.62.3.94.45s.59.36.89.54a5.89,5.89,0,0,1,2.42,3.32Z"/><path class="cls-4" d="M36.15,31.24A4.58,4.58,0,0,0,36.67,28a8.7,8.7,0,0,0-1.36-3.08c-.17-.23-.32-.47-.49-.69s-.34-.45-.52-.67-.39-.41-.59-.61-.44-.35-.66-.52a7.71,7.71,0,0,0-.72-.44,4.86,4.86,0,0,0-.76-.37A6.23,6.23,0,0,0,30,21.13l-.07.12c.38.44.78.79,1.16,1.16l.29.27.28.27c.19.18.39.34.57.53s.38.35.57.51a6.93,6.93,0,0,0,.58.5l.57.52a6.76,6.76,0,0,1,.52.55,8.8,8.8,0,0,1,.9,1.23c.15.21.25.45.38.67s.19.46.29.7a4.35,4.35,0,0,1,0,3Z"/><path class="cls-4" d="M21.67,28.27a4.32,4.32,0,0,1,.49-3.07,7.92,7.92,0,0,1,2.12-2.38c.21-.16.42-.33.64-.48l.66-.45c.23-.13.47-.26.71-.37s.49-.19.75-.28.51-.13.77-.19a5.17,5.17,0,0,1,.79-.1,5.67,5.67,0,0,1,1.59.05l0,.12c-.47.29-.93.48-1.38.71l-.34.15-.33.16c-.22.12-.45.2-.66.31s-.44.21-.67.3-.43.19-.66.28l-.66.29a6.54,6.54,0,0,0-.64.35,8.71,8.71,0,0,0-1.17.85,6,6,0,0,0-.53.49c-.17.17-.31.36-.47.54a4.06,4.06,0,0,0-.9,2.7Z"/><path class="cls-4" d="M19.66,17.48a4.31,4.31,0,0,1,2.91-1.1,8.13,8.13,0,0,1,3.12.67l.73.32.72.36.67.43c.22.16.41.34.61.51s.37.39.55.58a5.82,5.82,0,0,1,.48.63,6.12,6.12,0,0,1,.74,1.41l-.1.08c-.47-.26-.87-.57-1.29-.85a3.3,3.3,0,0,1-.3-.22l-.31-.2c-.2-.14-.39-.3-.6-.43L27,19.24a6.17,6.17,0,0,1-.57-.44l-.58-.43c-.2-.14-.41-.25-.62-.38a8.14,8.14,0,0,0-1.31-.6c-.22-.1-.46-.14-.69-.22s-.47-.09-.7-.14a4.08,4.08,0,0,0-2.8.55Z"/><path class="cls-4" d="M33.65,21.75c-.23,1.09-2.22,1.59-4.44,1.11S25.38,21.1,25.62,20s2.23-1.59,4.45-1.11S33.89,20.65,33.65,21.75Z"/><path class="cls-4" d="M28.59,22.1a11.87,11.87,0,0,1,.27-3.85,15.62,15.62,0,0,1,1.34-3.66,12.59,12.59,0,0,1,2.31-3.16,24.72,24.72,0,0,1,3-2.52A20.08,20.08,0,0,1,38.87,7a17.68,17.68,0,0,1,3.68-1.16A15.28,15.28,0,0,1,50,6.18L50,6.45a15.92,15.92,0,0,0-7.08.72,16.32,16.32,0,0,0-3.17,1.47,17.24,17.24,0,0,0-2.81,2,16.08,16.08,0,0,0-2.3,2.58c-.68.92-1.34,1.84-2,2.78S31.33,18,30.72,19s-1.2,2.08-1.86,3.18Z"/></svg>