<svg id="Layer_1" data-name="Layer 1" xmlns="http://www.w3.org/2000/svg" viewBox="0 0 56.01 48.84"><defs><style>.cls-1{fill:#406913;}.cls-2{fill:#538718;}.cls-3{fill:#80b320;}</style></defs><title>vector</title><path class="cls-1" d="M52.74,4.74a13.6,13.6,0,0,1-5.48,8.62c-.53.38-1.2.34-1.42,0h0a1.07,1.07,0,0,1,.4-1.3,11.71,11.71,0,0,0,4.33-7.61,1.13,1.13,0,0,1,1.21-.94h0A1.06,1.06,0,0,1,52.74,4.74Z"/><path class="cls-2" d="M51.65,20.69a70.07,70.07,0,0,1-39.2,24.87c-5,1.14-9.61-1.19-9.92-4.38l-.06-.5c-.32-3.21,2.69-6.36,6.47-7.6A55.37,55.37,0,0,0,38.38,11.15,8.34,8.34,0,0,1,49.2,8.71l.6.33C53.81,11.11,54.91,16.6,51.65,20.69Z"/><path class="cls-1" d="M49.8,9l-.6-.33A8.8,8.8,0,0,0,44,7.77a8.58,8.58,0,0,1,1.13.49l.61.33c4,2.07,5.1,7.56,1.84,11.64A70,70,0,0,1,8.34,45.11a11.19,11.19,0,0,1-1.68.25,11.08,11.08,0,0,0,5.79.2,70.07,70.07,0,0,0,39.2-24.87C54.91,16.6,53.81,11.11,49.8,9Z"/><path class="cls-3" d="M37.39,23.37c-.26-.37-10.22,7.84-24.56,14A109.41,109.41,0,0,1,2.54,41.25a3.47,3.47,0,0,0,.27,1,93.47,93.47,0,0,0,10.51-3.79C27.9,32.33,37.65,23.59,37.39,23.37Z"/><path class="cls-3" d="M36.65,29.05c-.22-.39-8.64,6.47-20.77,10.81A76.32,76.32,0,0,1,3.41,43.25a5.29,5.29,0,0,0,.78.79A65.9,65.9,0,0,0,16.3,41C28.64,36.69,36.87,29.3,36.65,29.05Z"/><path class="cls-3" d="M29.43,23.93c-.24-.38-8.2,7-20,12.12a69,69,0,0,1-6.7,2.57,6.38,6.38,0,0,0-.24,1.2,64.07,64.07,0,0,0,7.43-2.68C21.92,32.07,29.67,24.16,29.43,23.93Z"/><polygon class="cls-1" points="41.36 15.28 40.8 13.33 41.28 13.16 41.84 14.47 43.24 14.3 43.33 14.8 41.36 15.28"/><polygon class="cls-1" points="47.01 16.91 46.45 14.96 46.93 14.79 47.48 16.1 48.89 15.93 48.98 16.43 47.01 16.91"/><polygon class="cls-1" points="40.23 21.54 39.67 19.59 40.15 19.42 40.7 20.72 42.11 20.56 42.2 21.06 40.23 21.54"/><polygon class="cls-1" points="38.41 27.01 38.84 25.03 39.35 25.11 39.21 26.52 40.53 27.05 40.37 27.53 38.41 27.01"/><polygon class="cls-1" points="32.73 21.95 33.16 19.97 33.66 20.05 33.53 21.46 34.84 21.99 34.69 22.47 32.73 21.95"/><polygon class="cls-1" points="30.93 26.12 31.36 24.14 31.86 24.21 31.73 25.63 33.05 26.15 32.89 26.64 30.93 26.12"/><polygon class="cls-1" points="6.8 37.5 7.71 35.69 8.17 35.88 7.7 37.22 8.84 38.05 8.57 38.48 6.8 37.5"/><polygon class="cls-1" points="12 41.49 12.9 39.68 13.37 39.88 12.89 41.21 14.04 42.05 13.77 42.48 12 41.49"/><polygon class="cls-1" points="16.96 36.99 17.87 35.18 18.34 35.38 17.86 36.72 19.01 37.55 18.74 37.98 16.96 36.99"/><polygon class="cls-1" points="22.24 39.39 23.15 37.58 23.62 37.78 23.14 39.12 24.29 39.95 24.01 40.38 22.24 39.39"/><polygon class="cls-1" points="29.57 33.04 30 31.06 30.5 31.14 30.37 32.55 31.68 33.08 31.52 33.56 29.57 33.04"/><polygon class="cls-1" points="22.12 30.43 22.55 28.45 23.05 28.52 22.92 29.94 24.23 30.46 24.07 30.95 22.12 30.43"/></svg>